<svg xmlns="http://www.w3.org/2000/svg" viewBox="0 0 110.08 80.2"><defs><style>.cls-1{fill:#1a1413;}.cls-2{fill:#f2e500;}.cls-3{fill:#eee423;}.cls-4{fill:#fff;}</style></defs><title>Recurso 1feriado</title><g id="Capa_2" data-name="Capa 2"><g id="corte"><path class="cls-1" d="M51.75,1.93a.69.69,0,0,1,0,.49,2.32,2.32,0,0,1-.3.4,1.29,1.29,0,0,1-.38.18c-.33,0-2.34.66-6.05,1.79S36.52,7.4,30.72,9.22L28.35,10,25.51,21.56l-2,8.22c-.52,2.21-.77,3.36-.77,3.48s.76-.26,2-.8l4.71-1.91c1.89-.77,3.55-1.46,5-2s2.25-.88,2.48-.93a1.45,1.45,0,0,1,1.24.13.72.72,0,0,1,.31.81c-.08.29-.39.55-.91.76-.23.08-.75.29-1.58.67s-1.7.75-2.72,1.2-2.17,1-3.44,1.53l-3.34,1.41c-.92.36-1.72.7-2.47,1s-1.22.5-1.44.61a1,1,0,0,0-.51.51,11.16,11.16,0,0,0-.56,1.53c-.19.74-.48,1.86-.83,3.34s-.79,3.4-1.34,5.77-1,4.57-1.48,6.71c-.22,1.11-.47,2.14-.69,3.16-.71,3.35-1.34,6.25-1.87,8.71s-1,4.51-1.38,6.2-.71,3.11-1,4.16-.5,1.91-.66,2.49a7.28,7.28,0,0,1-.44,1.26c-.14.21-.26.33-.35.35a.56.56,0,0,1-.37-.06.26.26,0,0,0-.14-.06,1,1,0,0,1-.59-1,14.72,14.72,0,0,1,.45-2.89A104.36,104.36,0,0,0,13.05,63a43.92,43.92,0,0,0,.1-9.69,10,10,0,0,0-1-3.3,19.78,19.78,0,0,0-2.4-3.41,10.59,10.59,0,0,1-2-2.88,2.37,2.37,0,0,1,.15-2c1-1.79,4.28-3.9,10-6.35l2.41-1,2.93-11.72c.81-3.31,1.49-6.1,2-8.41s.84-3.44.83-3.5-.82,0-2.29.47-3.3,1.07-5.42,1.83-4.25,1.56-6.33,2.41S8.27,17,6.88,17.68c-.08.05-.17.07-.25.12-.91.39-1.25.62-1.07.73a10.91,10.91,0,0,0,2.77.33l.56.06a15,15,0,0,1,3.49.52c.7.27,1,.64,1.1,1.11a.94.94,0,0,1-.23.69.74.74,0,0,1-.54.31.51.51,0,0,1-.54-.24C12,21,10.1,20.73,6.34,20.6a11.8,11.8,0,0,1-3-.34,1.19,1.19,0,0,1-.93-.87,1.67,1.67,0,0,1,0-.67,1,1,0,0,1,.2-.56q1.81-2.37,14.58-6.95c2-.75,3.95-1.4,5.76-2S27.43,7.83,31,6.83s8.91-2.49,16.15-4.5c1-.25,1.74-.46,2.29-.59a6.35,6.35,0,0,1,1.22-.22,2,2,0,0,1,.63.09A.88.88,0,0,1,51.75,1.93ZM18.81,41.09c.23-1.11.4-2,.5-2.57a6.13,6.13,0,0,0,.1-1.15c0-.17-.09-.25-.21-.22a14.76,14.76,0,0,0-2.37,1c-1.2.58-2.36,1.19-3.52,1.82A20.92,20.92,0,0,0,11,41.35C10.11,42,9.66,42.57,9.67,43a5.2,5.2,0,0,0,1.48,2.21,19,19,0,0,1,3,4.51,15,15,0,0,1,1.16,4.88L15.51,56l.22-1c.1-.35.33-1.47.76-3.39.38-1.75.82-3.8,1.35-6.1C18.24,43.71,18.56,42.21,18.81,41.09Z"/><path class="cls-1" d="M51.47,2c.24.62-.83.76-1.21.86L48,3.57l-6.52,2C37.3,6.85,33.11,8.18,28.92,9.47c-.32.1-.76.13-.87.48s-.13.51-.19.76L27,14.19l-1.73,7.08c-.93,3.82-1.93,7.65-2.73,11.51a3.25,3.25,0,0,0-.08.43.3.3,0,0,0,.4.32A18.27,18.27,0,0,0,25,32.68l3.29-1.33c2.44-1,4.88-2,7.34-3,.6-.24,1.62-.8,2.27-.49a.48.48,0,0,1,.3.62,1.28,1.28,0,0,1-.66.48l-1.16.48c-2.43,1.07-4.84,2.19-7.29,3.22-1.15.48-2.29,1-3.45,1.44s-2.11.8-3.12,1.28a1.74,1.74,0,0,0-.85,1,13.65,13.65,0,0,0-.49,1.49c-.29,1.12-.56,2.23-.83,3.35C19.15,46.45,18,51.64,16.9,56.84c-1.07,5-2.21,10-3.28,15a65.14,65.14,0,0,1-1.71,6.91,4.12,4.12,0,0,1-.23.58c0,.1-.12.23-.24.24a.84.84,0,0,1-.33-.13c-.4-.21-.36-.75-.33-1.13a33.16,33.16,0,0,1,.68-3.55,91.33,91.33,0,0,0,2.18-16.39,24.45,24.45,0,0,0-.45-6.5c-.57-2.34-2.08-4.18-3.59-6A6.32,6.32,0,0,1,8,43.19,2.64,2.64,0,0,1,8.83,41,15.34,15.34,0,0,1,13,38.07a59.66,59.66,0,0,1,5.67-2.66c.58-.25,1.16-.48,1.74-.74.24-.1.28-.26.33-.48l1.75-7c.57-2.3,1.15-4.59,1.71-6.9s1.13-4.75,1.71-7.13c.19-.74.41-1.49.54-2.24.09-.54-.38-.58-.8-.5a23.84,23.84,0,0,0-3.1.89c-1.24.41-2.48.83-3.71,1.27q-4.1,1.46-8.11,3.09-1.71.7-3.39,1.47c-.51.24-1,.45-1.52.72-.23.12-.6.3-.58.62,0,.53,1.11.51,1.46.54,1.27.13,2.56.17,3.83.33.75.1,2.29.18,2.63,1a.67.67,0,0,1-.22.78.35.35,0,0,1-.54-.06.83.83,0,0,0-.41-.25,8,8,0,0,0-1.88-.32c-1.19-.12-2.37-.17-3.56-.22a11.94,11.94,0,0,1-3-.3,1,1,0,0,1-.82-1.18,1.21,1.21,0,0,1,.4-.78A11.36,11.36,0,0,1,5.9,16.19a97.16,97.16,0,0,1,12.92-5.26C23.15,9.39,27.54,8.1,32,6.86q6.33-1.79,12.68-3.53c1.28-.36,2.57-.72,3.86-1.06.52-.13,1-.27,1.57-.38s1.16-.21,1.44.22.68,0,.47-.35a1.54,1.54,0,0,0-1.36-.53,7,7,0,0,0-1.55.3c-1.33.32-2.65.7-4,1.07L37.36,4.74C33.1,5.92,28.85,7.1,24.62,8.38c-2.4.73-4.78,1.55-7.15,2.41-2.57.93-5.14,1.88-7.67,2.94a45.2,45.2,0,0,0-5.06,2.43,13.09,13.09,0,0,0-1.54,1,3.1,3.1,0,0,0-1,1.08,1.9,1.9,0,0,0,0,1.55,1.73,1.73,0,0,0,1.11.79,13.7,13.7,0,0,0,3.38.32c1.19.05,2.39.1,3.57.23.36,0,.72.09,1.08.16.19,0,.38.14.56.17,0,0,0,0,0,0s0,0,.06.08a.82.82,0,0,0,.61.33A1.18,1.18,0,0,0,13.71,21c.34-1.08-.74-1.71-1.62-1.95a20.4,20.4,0,0,0-3.57-.46c-.63-.06-1.26-.08-1.89-.15l-.58-.08a2.37,2.37,0,0,0-.31-.06c-.12,0-.08.26,0,.26s.18-.12.23-.15c.27-.15.56-.26.84-.4.54-.25,1.07-.5,1.62-.74,1.26-.56,2.53-1.07,3.81-1.59,2.83-1.12,5.67-2.19,8.55-3.18,1.21-.41,2.43-.82,3.66-1.18A7.42,7.42,0,0,1,25.89,11H26s.16.23-.06-.13c-.37-.6-.05-.15-.09-.12s0,.19,0,.22c-.45,2.09-1,4.17-1.49,6.25q-1.07,4.36-2.15,8.73l-2,7.88-.13.51.18-.22a58.79,58.79,0,0,0-9.51,4.62,8.87,8.87,0,0,0-3,2.81c-1.22,2.16,1,4.18,2.21,5.72A17.72,17.72,0,0,1,11.86,50a10.17,10.17,0,0,1,1,3.46,34.56,34.56,0,0,1,.1,6.67c-.16,2.72-.47,5.43-.89,8.12S11,73.86,10.46,76.65a5.55,5.55,0,0,0-.18,2.71,1.28,1.28,0,0,0,.85.77.79.79,0,0,0,1-.42,6.46,6.46,0,0,0,.5-1.44c.14-.49.28-1,.41-1.49.29-1.11.54-2.23.8-3.35,1.13-5,2.19-9.92,3.26-14.89,1.14-5.36,2.31-10.71,3.56-16,.26-1.11.53-2.23.81-3.34.11-.47.22-.95.36-1.41a5.38,5.38,0,0,1,.56-1.46c.24-.37.8-.51,1.19-.67l1.73-.7c1.17-.47,2.32-1,3.48-1.45,2.44-1,4.84-2.14,7.27-3.19.48-.21.95-.43,1.44-.62A2.42,2.42,0,0,0,38.62,29c.68-.83-.21-1.74-1.09-1.74a6.36,6.36,0,0,0-2.24.66c-1.16.46-2.32.91-3.47,1.38-2.37,1-4.73,1.91-7.09,2.88a19.52,19.52,0,0,1-2.08.82l.4.32a12.5,12.5,0,0,1,.43-2c.29-1.29.6-2.57.91-3.86.5-2.05,1-4.11,1.49-6.16l2.05-8.41.7-2.88-.18.23,9.54-3q5.64-1.75,11.3-3.46c.54-.16,1.08-.33,1.62-.47a2.37,2.37,0,0,0,.57-.19A1.14,1.14,0,0,0,52,1.82C51.89,1.47,51.34,1.68,51.47,2Z"/><path class="cls-1" d="M19.1,41.14a29.53,29.53,0,0,0,.58-3.23c0-.36.09-1.1-.47-1.06a3.48,3.48,0,0,0-1,.33c-1.17.49-2.31,1.08-3.43,1.66s-2.2,1.15-3.26,1.79a8.66,8.66,0,0,0-1,.7,3.87,3.87,0,0,0-1,1.14c-.36.71.19,1.43.62,2s.84,1,1.25,1.46.81,1,1.18,1.55a14.11,14.11,0,0,1,1.59,2.9,21.07,21.07,0,0,1,1,5.51l0,.21a.29.29,0,0,0,.58,0c.28-1.28.57-2.57.86-3.85.55-2.49,1.1-5,1.64-7.46.27-1.22.53-2.43.8-3.64.09-.37-.49-.46-.58-.1C18,43.4,17.47,45.78,17,48.14c-.46,2.12-.92,4.25-1.39,6.36-.12.5-.23,1-.34,1.5h.58a29.16,29.16,0,0,0-.7-4.65,15.79,15.79,0,0,0-3.2-5.74c-.4-.47-.82-.92-1.21-1.4a4.24,4.24,0,0,1-.64-1,.62.62,0,0,1-.07-.19S10,43,10,43a.89.89,0,0,1,.15-.38,4.49,4.49,0,0,1,1.09-1,19,19,0,0,1,2.39-1.41c1.15-.63,2.31-1.23,3.49-1.79.48-.23,1-.46,1.45-.66l.49-.19.18-.06h0s0,0,0,0l-.15-.07s0,.05,0,.06c0,.18,0,.37,0,.56s-.06.48-.1.72l-.27,1.43c-.06.3-.12.6-.19.9A.29.29,0,0,0,19.1,41.14Z"/><path class="cls-1" d="M31.4,52.25a1.64,1.64,0,0,1-1.29-.34c-.72-.62-.94-1.72-.67-3.27a20.09,20.09,0,0,1,2.71-6.91c1.35-2.28,2.7-3.68,4-4.19a1.61,1.61,0,0,1,1.37.26,1.79,1.79,0,0,1,.69,1.26,6.69,6.69,0,0,1-1,3.4,20.25,20.25,0,0,1-2.58,3.78c-1,1.08-1.81,1.63-2.44,1.63-.1,0-.19.1-.27.3a2.78,2.78,0,0,0-.2.68,2.37,2.37,0,0,0-.08.72c0,.24,0,.39.11.46.29.23,1.78-.81,4.44-3.06,1.42-1.24,2.58-2.24,3.42-2.94s1.51-1.2,1.93-1.48.73-.38.92-.34.29.21.35.47-1.26,1.75-4.35,4.52c-1.25,1.17-2.38,2.16-3.37,3a16.4,16.4,0,0,1-1.89,1.52A4.21,4.21,0,0,1,31.4,52.25Zm3-10.11a9,9,0,0,0-.74,1.27,2,2,0,0,0-.3.79c0,.12.18,0,.44-.31a14.59,14.59,0,0,0,.87-1.23,13.16,13.16,0,0,0,.8-1.4l.46-1-.68.74C35,41.31,34.72,41.68,34.43,42.14Z"/><path class="cls-1" d="M31.37,52a1.37,1.37,0,0,1-1.25-.45,2.33,2.33,0,0,1-.47-1.16,6.11,6.11,0,0,1,.1-1.76c.11-.6.26-1.21.43-1.8a18.94,18.94,0,0,1,1.46-3.55,20.19,20.19,0,0,1,2.13-3.35A7,7,0,0,1,35.86,38a1.63,1.63,0,0,1,.61-.2,1.36,1.36,0,0,1,.76.2,1.49,1.49,0,0,1,.66,1.24,6.43,6.43,0,0,1-1,3.05A20.85,20.85,0,0,1,34.8,45.5a10,10,0,0,1-1.31,1.37,2.92,2.92,0,0,1-1.12.67,1.56,1.56,0,0,0-.51.11,1.25,1.25,0,0,0-.38.67,4,4,0,0,0-.2,1,1.62,1.62,0,0,0,.08.79c.25.51.87.17,1.21,0a16.16,16.16,0,0,0,2-1.41C36.42,47.16,38.16,45.49,40,44c.42-.33.85-.67,1.28-1a4.17,4.17,0,0,1,.56-.37c.11-.06.37-.2.47-.14a.49.49,0,0,1,.1.22c0,.05,0,.1.06.14a.31.31,0,0,1,0-.12s0-.09,0,0,0,0,0,0l0,.09h0l0,0c-.06.09-.13.17-.19.25-.46.55-1,1.05-1.48,1.55-.88.85-1.79,1.65-2.69,2.49s-1.87,1.7-2.83,2.52c-.46.39-.9.78-1.36,1.16a6.09,6.09,0,0,1-.82.62,3.77,3.77,0,0,1-1.63.49c-.38,0-.31.62.06.59A4.4,4.4,0,0,0,33.3,52a6.23,6.23,0,0,0,.82-.61c1-.79,1.9-1.61,2.82-2.43S39,47.05,40,46.1c.72-.67,1.44-1.34,2.11-2.06A3.86,3.86,0,0,0,43,42.93a.45.45,0,0,0,0-.25,1.47,1.47,0,0,1-.11-.31,1.14,1.14,0,0,0-.1-.19c-.34-.45-.89-.24-1.3,0a9.8,9.8,0,0,0-1.18.85c-.47.36-.93.72-1.38,1.1l-2.79,2.41c-.93.82-1.89,1.61-2.89,2.35-.31.22-.62.44-.94.64a1.73,1.73,0,0,1-.3.16l-.13.06-.07,0h0c.09,0,.06.06.05-.05a2,2,0,0,1,0-.49,3.35,3.35,0,0,1,.24-.93s.08-.13.07-.15,0,0,0,0,0,0,0,0a.9.9,0,0,0,.28,0,3.31,3.31,0,0,0,1.24-.66,9.48,9.48,0,0,0,1.38-1.38,21.64,21.64,0,0,0,2.24-3.34,7.72,7.72,0,0,0,1.15-3.3A2.31,2.31,0,0,0,38,37.93a1.93,1.93,0,0,0-1.54-.73,2.34,2.34,0,0,0-1.31.51,6.86,6.86,0,0,0-1.13.95,16.1,16.1,0,0,0-2.27,3.11A21.48,21.48,0,0,0,30,45.48a15.47,15.47,0,0,0-.94,3.79,3.32,3.32,0,0,0,.85,2.85,2,2,0,0,0,1.52.42A.3.3,0,0,0,31.37,52Z"/><path class="cls-1" d="M34.2,42c-.2.3-.4.61-.58.93a7.94,7.94,0,0,0-.43.88c-.08.21-.17.52,0,.69s.47,0,.64-.17A8.26,8.26,0,0,0,35,42.66a11.32,11.32,0,0,0,.78-1.4l.41-.9a.3.3,0,0,0-.5-.3A13.4,13.4,0,0,0,34.2,42a.3.3,0,0,0,.46.37,12.73,12.73,0,0,1,1.53-1.9l-.5-.31c-.2.45-.38.9-.61,1.33a15.21,15.21,0,0,1-.91,1.49c-.15.22-.31.43-.47.64l-.22.27-.09.08c-.08.09,0,0,.07,0l.14.06.08.19s0,0,0-.05a.17.17,0,0,0,0-.07l.06-.16c.08-.18.18-.35.26-.53a8.78,8.78,0,0,1,.64-1.06C34.87,42,34.41,41.65,34.2,42Z"/><path class="cls-1" d="M46.45,34.57A8.44,8.44,0,0,1,46,36.24c-.14.55-.3,1-.42,1.46s-.17.68-.18.77.11,0,.36-.38.55-.77.94-1.34a8.23,8.23,0,0,1,1.83-2.18,2,2,0,0,1,1.73-.25,2.73,2.73,0,0,0,1.55,0,5.73,5.73,0,0,0,1.76-1.19C55,32,55.77,31.78,56,32.67a1.21,1.21,0,0,1-.28,1A9.35,9.35,0,0,1,54,35.28c-1.54,1.23-2.8,1.65-3.83,1.28a.93.93,0,0,0-.51-.1,1.53,1.53,0,0,0-.56.47c-.21.26-.54.67-1,1.28-1.06,1.46-2.2,3.24-3.41,5.31a48.15,48.15,0,0,0-2.68,5.08c-.66,1.61-1.22,2.46-1.71,2.58a.39.39,0,0,1-.2-.08l-.41-.21a1.65,1.65,0,0,1-.34-.31.84.84,0,0,1-.22-.25,5,5,0,0,1,.26-1c.16-.62.39-1.31.66-2.13s.69-2,1.21-3.55,1-3,1.49-4.56.86-2.6,1.13-3.36a12.26,12.26,0,0,1,.68-1.64c.21-.29.38-.48.55-.52a.83.83,0,0,1,1.06.24A.93.93,0,0,1,46.45,34.57Z"/><path class="cls-1" d="M46.16,34.53a6.45,6.45,0,0,1-.3,1.3c-.17.6-.35,1.2-.52,1.8-.07.26-.42,1.07,0,1.15.2,0,.34-.15.46-.28s.29-.39.43-.59a22,22,0,0,1,2-2.75,1.94,1.94,0,0,1,1.15-.63,2.89,2.89,0,0,1,.93.11,3.86,3.86,0,0,0,.89.1,4.33,4.33,0,0,0,2.58-1.42,4.66,4.66,0,0,1,1.26-.85.64.64,0,0,1,.34-.06c.05,0,0,0,0,0s0,0,0,0a.24.24,0,0,1,.08.09c.46.76-.7,1.63-1.21,2.06a7.49,7.49,0,0,1-2.89,1.75,2.28,2.28,0,0,1-1.16,0,1.26,1.26,0,0,0-.81-.11,1.37,1.37,0,0,0-.54.41,11.54,11.54,0,0,0-.87,1.09c-.33.45-.65.91-1,1.38a74.18,74.18,0,0,0-4,6.51c-.49.89-.95,1.8-1.37,2.73a17,17,0,0,1-.72,1.56,3,3,0,0,1-.64.88l-.14.11h0c-.14.07,0,0,0,0s-.26-.13-.3-.15a1.79,1.79,0,0,1-.34-.22c-.09-.08-.16-.18-.25-.26s0-.09,0,0,0,0,0,0a.37.37,0,0,0,0-.09,4.67,4.67,0,0,1,.18-.64c.3-1,.63-2.05,1-3.07.84-2.43,1.63-4.87,2.43-7.31.34-1,.67-2.08,1-3.11.18-.49.35-1,.56-1.46s.35-.78.78-.85a.54.54,0,0,1,.5.15.79.79,0,0,1,.21.66.3.3,0,0,0,.33.26c.17,0,.25-.16.26-.32A1.3,1.3,0,0,0,46,33.29a1.27,1.27,0,0,0-1.34.23A3.23,3.23,0,0,0,44,34.66c-.19.46-.35.93-.51,1.4-.83,2.33-1.58,4.7-2.34,7-.67,2.11-1.45,4.19-2.06,6.32-.1.31-.34.8-.14,1.12a2.25,2.25,0,0,0,.56.55,2.37,2.37,0,0,0,.69.35c.31.08.61-.17.81-.38a4.53,4.53,0,0,0,.69-1c.48-.89.83-1.85,1.29-2.76s1.08-2.06,1.66-3.06a67.57,67.57,0,0,1,3.92-6.12,11.24,11.24,0,0,1,.86-1.1c.13-.14.24-.29.45-.23s.42.15.65.18a4,4,0,0,0,2.68-.75,12.91,12.91,0,0,0,1.51-1.13,8.45,8.45,0,0,0,1-1,1.76,1.76,0,0,0,.54-1.35,1.05,1.05,0,0,0-.5-.86,1.11,1.11,0,0,0-.94.05,5.38,5.38,0,0,0-1.3.87c-.68.58-1.46,1.39-2.43,1.34A7.15,7.15,0,0,0,49.28,34a2.48,2.48,0,0,0-1.25.65,16.88,16.88,0,0,0-2,2.66l-.39.55-.24.3-.09.1s0,0,0,0l.15,0h0l.22.18h0l0,.15a12.82,12.82,0,0,1,.51-1.91,9.9,9.9,0,0,0,.49-2C46.76,34.25,46.18,34.15,46.16,34.53Z"/><path class="cls-1" d="M57,46.59a1.72,1.72,0,0,1-2,0,2.13,2.13,0,0,1-1-1.4,8.42,8.42,0,0,1,.43-3.4A41.85,41.85,0,0,1,56,37a6.94,6.94,0,0,1,1.56-2.72,1.35,1.35,0,0,1,1,0q.6.27.69.66A3.57,3.57,0,0,1,59,36c-.2.6-.43,1.29-.74,2.08-.59,1.51-1,2.85-1.38,4a5.84,5.84,0,0,0-.34,2c.07.05.35-.17.89-.6s1.17-1,1.92-1.65c3.13-3.12,5.08-4.94,5.86-5.36s1.23-.32,1.38.34c.1.41-.19.9-.91,1.43-.34.26-1.09,1-2.34,2.33s-2.22,2.33-3,3.11A16.63,16.63,0,0,1,57,46.59Zm1.32-13.83a.72.72,0,0,1-.37-.13.69.69,0,0,1-.32-.35,1.64,1.64,0,0,1-.23-.46c-.17-.75.66-1.34,2.5-1.79a7.61,7.61,0,0,1,1-.27c.23-.05.39,0,.46,0a1,1,0,0,1,.23.47s0,.06,0,.05a1.85,1.85,0,0,1,.07.41.54.54,0,0,1-.23.32,3.74,3.74,0,0,1-.82.53c-.37.23-.91.51-1.61.89a2,2,0,0,1-.38.2A.72.72,0,0,1,58.34,32.76Z"/><path class="cls-1" d="M56.91,46.32a1.6,1.6,0,0,1-1.31.21,2.21,2.21,0,0,1-1-.8,2.85,2.85,0,0,1-.24-2,24.88,24.88,0,0,1,.75-3.18c.32-1.1.67-2.2,1.09-3.27.19-.5.41-1,.65-1.48a5.87,5.87,0,0,1,.57-1,1.4,1.4,0,0,1,.22-.25.83.83,0,0,1,.6,0,1.28,1.28,0,0,1,.63.33A.76.76,0,0,1,59,35s0,0,0,0,0,0,0,0a8.54,8.54,0,0,1-.36,1.22q-.26.76-.54,1.53c-.39,1-.78,2.07-1.12,3.13a13.43,13.43,0,0,0-.68,2.69c0,.23-.09.64.18.75s.64-.21.84-.37A24.82,24.82,0,0,0,59.67,42c.77-.77,1.55-1.54,2.34-2.3A30.83,30.83,0,0,1,65,37l.21-.15.08-.06.06,0c.22-.12.64-.35.84-.17a.57.57,0,0,1,.06.7,3,3,0,0,1-.82.81c-.52.46-1,1-1.48,1.47-.78.8-1.54,1.62-2.31,2.43a37.2,37.2,0,0,1-4,3.84,6.44,6.44,0,0,1-.7.46.3.3,0,0,0-.16.38.29.29,0,0,0,.38.16A9.51,9.51,0,0,0,59,45.42c.81-.74,1.56-1.52,2.32-2.3s1.65-1.74,2.49-2.61c.6-.62,1.2-1.28,1.84-1.85a5.92,5.92,0,0,0,.93-.87,1.23,1.23,0,0,0,.22-1.16A.87.87,0,0,0,66,36a2.07,2.07,0,0,0-1.07.36,8.45,8.45,0,0,0-1.15.9c-.63.55-1.24,1.12-1.85,1.7a57.37,57.37,0,0,1-5.14,4.72l-.23.17,0,0h0s.32.08.16,0l.15.16c0-.05,0,.07,0,0s0-.05,0-.07,0,0,0-.08a3.85,3.85,0,0,1,.07-.49A13.35,13.35,0,0,1,57.22,42c.3-1,.64-2,1-3s.78-2,1.1-3.09a2.48,2.48,0,0,0,.21-1,1.32,1.32,0,0,0-.95-.92,1.41,1.41,0,0,0-1.35.09,3.12,3.12,0,0,0-.57.73,14.94,14.94,0,0,0-1.24,2.73c-.4,1.09-.74,2.2-1,3.31a20,20,0,0,0-.67,3,2.94,2.94,0,0,0,.55,2.35,2.66,2.66,0,0,0,1.3.83,2.16,2.16,0,0,0,1.57-.26.3.3,0,0,0,.16-.38A.29.29,0,0,0,56.91,46.32Z"/><path class="cls-1" d="M58.38,32.47c-.34,0-.52-.34-.64-.63a.37.37,0,0,1,0-.14s0-.12,0-.06a.39.39,0,0,1,0-.18,1.61,1.61,0,0,1,.82-.66,12.78,12.78,0,0,1,1.9-.62c.25-.07.49-.11.75-.16h.05c-.05,0-.05,0,0,0s.06.1.08.15.07.32.25.4l-.17-.24a2.21,2.21,0,0,1,0,.25s0,.13,0,.09,0,0,0,0a2.08,2.08,0,0,1-.32.27c-.28.18-.59.34-.88.51s-.59.33-.89.49a4.68,4.68,0,0,0-.54.3,1.15,1.15,0,0,1-.5.17c-.38,0-.32.6.06.58a3.36,3.36,0,0,0,1.29-.56c.38-.2.76-.39,1.12-.62a4.86,4.86,0,0,0,1-.7.67.67,0,0,0,.22-.53c0-.21,0-.51-.27-.6l.16.16a1.11,1.11,0,0,0-.42-.68,1,1,0,0,0-.74,0c-.3.06-.59.16-.88.24s-.67.18-1,.29c-.73.25-1.8.71-1.79,1.63a1.68,1.68,0,0,0,.34.87,1.13,1.13,0,0,0,.84.53C58.66,33.08,58.76,32.51,58.38,32.47Z"/><path class="cls-1" d="M63.41,44.35a1.87,1.87,0,0,1-1-1,2.32,2.32,0,0,1,0-1c.22-1.93,1.27-4.45,3.18-7.47a38.11,38.11,0,0,1,6.39-7.78c3.71-3.08,6-3.32,6.8-.73a2.38,2.38,0,0,1,0,1.49.6.6,0,0,1-.78.4.81.81,0,0,1-.44-.33,1.13,1.13,0,0,1-.33-.5c-.28-.93-1.25-.68-2.94.8A28.74,28.74,0,0,0,68.9,34c-.54.79-1.13,1.68-1.72,2.64s-1.1,1.83-1.5,2.59-.55,1.16-.47,1.23a12.72,12.72,0,0,0,1.15-1.33c.7-.89,1.57-2,2.62-3.36s1.93-2.54,2.72-3.57,1.28-1.67,1.45-1.86a2.37,2.37,0,0,1,1.63-.83,1,1,0,0,1,1,.82,5.72,5.72,0,0,1-.16,1.4c-.15.8-.35,1.75-.62,2.82l-.58,2.71a3.18,3.18,0,0,0-.12,1.18,8.27,8.27,0,0,0,1.31-.88c.8-.61,1.76-1.41,2.91-2.34,1.38-1.11,2.41-1.92,3.13-2.46A3.74,3.74,0,0,1,83.17,32c.3,0,.44.17.44.59,0,.17-.23.57-.78,1.18s-1.62,1.53-3.11,2.82a33.28,33.28,0,0,1-4.57,3.6c-.93.55-1.64.62-2.09.27A1.77,1.77,0,0,1,72.18,39a14.56,14.56,0,0,1,.35-3.45,1.67,1.67,0,0,0,.09-.81c-.05-.08-.25.09-.58.5s-.87,1.11-1.64,2.11c-1.9,2.53-3.31,4.28-4.25,5.35A5.55,5.55,0,0,1,64,44.4,1,1,0,0,1,63.41,44.35Z"/><path class="cls-1" d="M63.53,44.08a1.47,1.47,0,0,1-.91-.88,2.56,2.56,0,0,1,0-1.1,11,11,0,0,1,.54-2A26.13,26.13,0,0,1,65.77,35a38.38,38.38,0,0,1,3.62-4.89c.63-.74,1.3-1.44,2-2.12a15.92,15.92,0,0,1,2.25-1.85,8.46,8.46,0,0,1,2-1.07A2.51,2.51,0,0,1,77.15,25a1.72,1.72,0,0,1,.95.8,2.43,2.43,0,0,1,.34,1.9.43.43,0,0,1-.27.34.49.49,0,0,1-.42-.14,1.54,1.54,0,0,1-.33-.47,2.64,2.64,0,0,0-.18-.38,1,1,0,0,0-1.31-.3,7.75,7.75,0,0,0-2.08,1.42A24.66,24.66,0,0,0,71.79,30,32.42,32.42,0,0,0,68,34.81c-.59.9-1.16,1.81-1.7,2.74A19.26,19.26,0,0,0,65,39.92c-.08.2-.21.5,0,.7a.3.3,0,0,0,.35.1.64.64,0,0,0,.26-.23L66,40c.39-.47.77-.94,1.15-1.42.87-1.12,1.74-2.25,2.6-3.38s1.68-2.21,2.53-3.31l.94-1.2a2.52,2.52,0,0,1,1.19-.87,1.14,1.14,0,0,1,.73,0,.69.69,0,0,1,.38.45.39.39,0,0,1,0,.16v0c0,.06,0,.11,0,.17,0,.29-.07.57-.12.86-.24,1.41-.61,2.79-.91,4.18-.13.62-.29,1.23-.39,1.85,0,.27-.26,1.09.19,1.16a.69.69,0,0,0,.43-.16c.2-.12.39-.26.58-.4.51-.36,1-.74,1.49-1.14l3.37-2.71,1.34-1a7.58,7.58,0,0,1,1.36-.89l.25-.09h.15s0,0,0,.1a.47.47,0,0,1,0,.17s0,.06,0,.08,0,0,0,0,0,0,0,0l0,.06a.41.41,0,0,1,0,.09,2.27,2.27,0,0,1-.22.32c-.18.22-.37.44-.57.64-.8.78-1.64,1.51-2.48,2.24-1,.91-2.07,1.82-3.16,2.68a11.22,11.22,0,0,1-2.23,1.51,1.37,1.37,0,0,1-1.34.07,1.58,1.58,0,0,1-.56-.53,1.75,1.75,0,0,1-.22-.77,6.48,6.48,0,0,1,0-1.32c.07-.67.17-1.35.3-2a2.48,2.48,0,0,0,.11-.81.36.36,0,0,0-.47-.34,1.35,1.35,0,0,0-.51.44l-.44.52c-.85,1.08-1.66,2.2-2.5,3.29-.72.93-1.45,1.86-2.2,2.77a13.16,13.16,0,0,1-2.16,2.25,1.2,1.2,0,0,1-1.12.37c-.35-.12-.59.42-.24.54a1.88,1.88,0,0,0,1.85-.55,12,12,0,0,0,1.62-1.64c1-1.18,2-2.4,2.9-3.63l1.83-2.4q.3-.4.63-.81l.29-.34a1.54,1.54,0,0,1,.17-.19s.07-.05.08-.07h0c.13,0,0-.1-.29-.15,0,0,0-.06,0,0s0,0,0,.07a2.42,2.42,0,0,1,0,.25c0,.24-.1.47-.14.71-.08.47-.16.94-.21,1.41a6.58,6.58,0,0,0,0,2,2.28,2.28,0,0,0,.48,1,2.23,2.23,0,0,0,.88.6,2.81,2.81,0,0,0,2.17-.54,25.13,25.13,0,0,0,3.28-2.53c1.33-1.13,2.66-2.27,3.92-3.48.26-.25.51-.5.74-.77a2.24,2.24,0,0,0,.5-.82,1,1,0,0,0-.22-.88.77.77,0,0,0-.8-.12,3.83,3.83,0,0,0-.94.49c-.3.19-.6.41-.88.63q-1,.75-2,1.53c-1.46,1.16-2.87,2.39-4.39,3.46l-.35.23-.08,0s0,0,0,0h0s0,0,.12,0l.19.12c0,.07,0,.12,0,0s0,.06,0,0a.22.22,0,0,1,0-.08,5.93,5.93,0,0,1,.07-.59c.07-.43.18-.84.27-1.27.21-1,.44-2,.66-3a20.86,20.86,0,0,0,.48-2.6A1.6,1.6,0,0,0,76,30a1.18,1.18,0,0,0-.73-.72,2.36,2.36,0,0,0-2.35.83,16.89,16.89,0,0,0-1.12,1.41c-1.2,1.56-2.39,3.15-3.6,4.71-.62.81-1.24,1.61-1.87,2.4-.29.37-.59.74-.9,1.1-.1.12-.2.25-.31.37l-.1.1s0,0,0,0h0l.35.09c0,.07,0,.19,0,.09a.48.48,0,0,1,.05-.14c.07-.19.15-.37.24-.56.21-.42.44-.83.68-1.24.54-1,1.11-1.88,1.7-2.8a34.67,34.67,0,0,1,3.87-5,23.43,23.43,0,0,1,2.12-2,7,7,0,0,1,2.07-1.41,1.41,1.41,0,0,1,.27-.05l.12,0,0,0a.5.5,0,0,1,.12.14c.08.15.12.32.21.47a1.41,1.41,0,0,0,1,.75.92.92,0,0,0,.94-.6,2.83,2.83,0,0,0-.21-2.29,2.5,2.5,0,0,0-1.08-1.17c-1.15-.57-2.52,0-3.52.62a15.83,15.83,0,0,0-2.42,1.72A27.48,27.48,0,0,0,69.63,29a38,38,0,0,0-3.79,4.86,30.73,30.73,0,0,0-3,5.36,15.21,15.21,0,0,0-.72,2.26,3.17,3.17,0,0,0,.06,2.27,2.12,2.12,0,0,0,1.06.9C63.65,44.74,63.89,44.2,63.53,44.08Z"/><path class="cls-1" d="M98.27,6.14c-1.07,4-2.15,8.42-3.27,13.13S93,28,92.35,31.16q-.55,2.91-1.08,5.53c-.36,1.75-.61,3-.78,3.73S90.15,42,90,42.81s-.33,1.47-.44,2-.26,1.25-.43,2.07-.32,1.53-.46,2.2-.34,1.57-.56,2.71-.44,2.28-.67,3.4c-.25,1.42-.48,2.63-.7,3.65-.09.53-.16.88-.21,1.08a1.43,1.43,0,0,1-.5,1A.66.66,0,0,1,85,60.68a1.67,1.67,0,0,1,0-.77c0-.37.06-.9.13-1.64s.28-1.7.48-2.93.45-2.75.78-4.61S87,46.62,87.51,44c.48-2.75.95-5.44,1.46-8.1s.91-4.7,1.2-6.07.48-2.38.66-3.31.28-1.4.28-1.42-.09,0-.17.19a7.64,7.64,0,0,0-.32.71,3.88,3.88,0,0,0-.29.85,1.57,1.57,0,0,0,0,.62.82.82,0,0,1-.05.43,1,1,0,0,1-.32.35,5.21,5.21,0,0,0-.57.8,14.13,14.13,0,0,0-.81,1.49c-.73,1.54-1.66,3.17-2.73,4.94a24.52,24.52,0,0,1-2.59,3.63,3.83,3.83,0,0,1-1.42,1.09,1.61,1.61,0,0,1-1.29-.37,1.56,1.56,0,0,1-.69-.6,1.9,1.9,0,0,1-.17-.87,17.88,17.88,0,0,1,1.61-6.53,17.82,17.82,0,0,1,3.54-5.67,4.83,4.83,0,0,1,3.79-1.3c.26-.09,1-1.55,2-4.39s2.44-6.5,3.91-11c.59-1.68,1.1-3.13,1.58-4.34a8.8,8.8,0,0,1,.94-2.09.83.83,0,0,1,.53-.31,1.71,1.71,0,0,1,.67.27l.68.45ZM87,29.16a5.63,5.63,0,0,0,.75-1.84c-.13-.06-.38,0-.69.28a6.15,6.15,0,0,0-1,1.06,10,10,0,0,0-1,1.47A28.12,28.12,0,0,0,83.67,33a27.22,27.22,0,0,0-1,2.71l-.17.71.6-.68c.19-.23.42-.56.74-1s.58-.9.86-1.38C85.64,31.66,86.42,30.29,87,29.16Z"/><path class="cls-1" d="M98,6.1C96.45,11.87,95,17.67,93.71,23.49c-.56,2.46-1.1,4.93-1.6,7.4-.57,2.79-1.08,5.59-1.67,8.37-.51,2.42-1,4.83-1.54,7.25-.57,2.75-1.11,5.5-1.67,8.25-.28,1.35-.53,2.72-.79,4.07a5.75,5.75,0,0,1-.37,1.59c-.13.24-.46.51-.73.29s-.16-.59-.14-.84a30.43,30.43,0,0,1,.43-3.42c.21-1.24.41-2.49.62-3.73q.69-4.06,1.44-8.11c.57-3,1.08-6.09,1.66-9.13.46-2.44,1-4.86,1.46-7.29.12-.64.24-1.27.37-1.91a7.23,7.23,0,0,0,.21-1.11c0-.23-.17-.42-.4-.33s-.32.35-.41.54A4.74,4.74,0,0,0,90,27.27c0,.29.06.49-.18.72a3.43,3.43,0,0,0-.43.5,14.74,14.74,0,0,0-1.06,1.85c-.6,1.27-1.28,2.5-2,3.72A42.32,42.32,0,0,1,84,37.66a12.29,12.29,0,0,1-.89,1.13,3.94,3.94,0,0,1-1.28,1.09.85.85,0,0,1-.7,0,2.59,2.59,0,0,1-.92-.57c-.39-.37-.3-1-.26-1.53a14.94,14.94,0,0,1,.76-3.63,25.91,25.91,0,0,1,1.7-4.07,15.56,15.56,0,0,1,2-3.09,4.83,4.83,0,0,1,3.12-1.79c.33,0,.64,0,1,0A.48.48,0,0,0,88.9,25a2.55,2.55,0,0,0,.36-.56,25.14,25.14,0,0,0,1.22-2.76c.45-1.1.88-2.22,1.29-3.34,1-2.54,1.85-5.11,2.7-7.69.46-1.37.93-2.74,1.43-4.1.23-.63.47-1.25.71-1.87a8.09,8.09,0,0,1,.59-1.31.67.67,0,0,1,.33-.31c.18-.07.4.09.56.18s.45.3.68.45l-.11-.28L98,6.1c-.1.36.48.45.58.09l.68-2.67a.27.27,0,0,0-.1-.28c-.48-.32-1.19-1-1.8-.73a1.46,1.46,0,0,0-.74.75A12.1,12.1,0,0,0,96,4.54c-.91,2.4-1.74,4.82-2.56,7.26-.76,2.24-1.55,4.48-2.39,6.7a50.91,50.91,0,0,1-2.29,5.57,3.11,3.11,0,0,1-.32.53h0c-.08,0,.24,0,0,0a4.8,4.8,0,0,0-.93,0,5.15,5.15,0,0,0-3,1.45,17.77,17.77,0,0,0-3.61,5.89,24.31,24.31,0,0,0-1.17,3.56,11.37,11.37,0,0,0-.38,3,1.67,1.67,0,0,0,.6,1.32,2.78,2.78,0,0,0,1.58.7A2,2,0,0,0,82.75,40a7.3,7.3,0,0,0,1-1.05,25.16,25.16,0,0,0,1.8-2.53c.73-1.15,1.43-2.33,2.09-3.53s1.11-2.29,1.76-3.38a5.6,5.6,0,0,1,.84-1.14,1.11,1.11,0,0,0,.32-.66c0-.12,0-.23,0-.35a1.58,1.58,0,0,1,.05-.43,4.57,4.57,0,0,1,.3-.88c.06-.14.12-.28.19-.42a.83.83,0,0,1,.07-.13s.12-.14,0-.11l-.29,0h0l-.11-.19c0-.14,0,0,0,.05l-.06.28c-.07.36-.14.73-.22,1.09-.13.7-.27,1.4-.41,2.1-.26,1.28-.53,2.57-.78,3.85-.68,3.41-1.3,6.83-1.9,10.25-.56,3.16-1.15,6.31-1.69,9.47-.25,1.45-.49,2.9-.73,4.35-.1.65-.23,1.3-.29,1.95,0,.34-.07.68-.09,1a4.18,4.18,0,0,0,0,1,1,1,0,0,0,1.48.66,2.13,2.13,0,0,0,.78-1.55c.29-1.49.56-3,.85-4.49.63-3.19,1.29-6.37,2-9.55.58-2.75,1.18-5.49,1.74-8.25.63-3.09,1.2-6.19,1.86-9.28Q95.42,18.24,98,8.48l.6-2.29C98.65,5.83,98.07,5.74,98,6.1Z"/><path class="cls-1" d="M87.25,29.28c.21-.43.43-.87.61-1.32a1.37,1.37,0,0,0,.17-.65c-.07-.54-.8-.21-1,0a5.73,5.73,0,0,0-1.11,1.09,13.77,13.77,0,0,0-1.68,2.71,30.79,30.79,0,0,0-1.35,3.19,21.39,21.39,0,0,0-.62,2.07c-.07.3.34.44.52.24l.57-.65a13.27,13.27,0,0,0,.87-1.21c.78-1.17,1.45-2.43,2.13-3.67.32-.58.63-1.16.93-1.76.16-.33-.37-.57-.54-.24-.54,1.11-1.15,2.18-1.76,3.25-.35.62-.69,1.25-1.08,1.84a15.1,15.1,0,0,1-1,1.39c-.19.23-.4.45-.59.68l.51.23a21.92,21.92,0,0,1,1-3.06A18.68,18.68,0,0,1,86,29.18a7.15,7.15,0,0,1,.88-1,3.62,3.62,0,0,1,.42-.36,1.13,1.13,0,0,1,.26-.16s.11,0,.07,0l-.15-.16s0-.1,0-.07,0,.13,0,.07a2.35,2.35,0,0,1-.14.37c-.17.42-.38.83-.58,1.24S87.08,29.62,87.25,29.28Z"/><path class="cls-1" d="M100.21,32.62A13.06,13.06,0,0,1,98,35.77c-1.21,1.31-2.29,1.65-3.19,1-1.86-1.36-1.34-4.87,1.54-10.6a7.94,7.94,0,0,1,2.22-3.13,2.59,2.59,0,0,1,2.43,0c.84,1.26,1.37,1.84,1.53,1.77l3-.69c.83-.19,1.34-.34,1.46-.37a3.26,3.26,0,0,0,.72-.29,4,4,0,0,1,1.51-.44c.28.06.49.29.59.72s-.7,1.07-2.36,1.75a15.11,15.11,0,0,1-5,1.23A33.92,33.92,0,0,1,100.21,32.62Zm-.87-4.44c.21-.89.16-1.37-.09-1.43s-.54.43-1,1.22a18.09,18.09,0,0,0-1.21,2.77,14.63,14.63,0,0,0-.78,2.67c0,.52.15.54.56.08a11.2,11.2,0,0,0,1.38-2.29A15.51,15.51,0,0,0,99.34,28.18Z"/><path class="cls-1" d="M99.94,32.5A13.91,13.91,0,0,1,98.32,35a5.55,5.55,0,0,1-2,1.7,1.43,1.43,0,0,1-1.56-.29,2.21,2.21,0,0,1-.59-.91,5.81,5.81,0,0,1,0-3.12A24.42,24.42,0,0,1,96,27.52a28.78,28.78,0,0,1,1.41-2.7,4.84,4.84,0,0,1,1.2-1.46,1.82,1.82,0,0,1,.91-.3,2.39,2.39,0,0,1,.59.05,2,2,0,0,1,.33.08.91.91,0,0,1,.35.12,1.69,1.69,0,0,1,.21.31l.2.28c.12.17.24.34.37.5a4.26,4.26,0,0,0,.54.58,1.13,1.13,0,0,0,.21.12.45.45,0,0,0,.16,0s.19,0,.07,0l.31-.07,1.46-.34,1.15-.27.91-.22.44-.12.14,0h0s0,0,0,0l.09,0a12,12,0,0,0,1.17-.48c.18-.07.37-.13.55-.18a1.74,1.74,0,0,1,.34-.05.45.45,0,0,1,.25.2c0,.09.06.18.1.27v0s0-.05,0,0,0,0,0,.06,0,0,0,.08a1.73,1.73,0,0,1-.23.24,8.69,8.69,0,0,1-2.31,1.18,15.37,15.37,0,0,1-3,.86,14.76,14.76,0,0,1-1.49.17.31.31,0,0,0-.26.25,31.44,31.44,0,0,1-2.14,5.79c-.17.34.36.57.54.24a32.75,32.75,0,0,0,2.18-5.94l-.26.25a15.72,15.72,0,0,0,6.33-1.82c.48-.26,1.22-.64,1.33-1.24a1.21,1.21,0,0,0-.3-.93.93.93,0,0,0-.92-.27,5.14,5.14,0,0,0-1.27.43,6.57,6.57,0,0,1-.61.26l-.27.07c-.5.13-1,.26-1.5.37l-2.68.62-.08,0h.1s.08,0,0,0h0a.1.1,0,0,0,0,0l-.12-.11a6.8,6.8,0,0,1-.63-.77c-.15-.2-.29-.41-.44-.63a.55.55,0,0,0-.27-.25,3.09,3.09,0,0,0-.43-.14,3.18,3.18,0,0,0-1.37-.13,2.76,2.76,0,0,0-1.67,1.08A13.38,13.38,0,0,0,96.12,26a32.21,32.21,0,0,0-2.25,5.48,7.85,7.85,0,0,0-.35,3.75,2.6,2.6,0,0,0,2,2.17,3,3,0,0,0,2.22-.94,12.35,12.35,0,0,0,1.92-2.29c.29-.46.56-.93.82-1.41S100.12,32.17,99.94,32.5Z"/><path class="cls-1" d="M99.62,28.23a2.1,2.1,0,0,0,0-1.52c-.25-.39-.64-.24-.9,0a6,6,0,0,0-.91,1.48A17.39,17.39,0,0,0,97,30c-.26.67-.5,1.35-.7,2-.08.28-.16.57-.22.85a1.89,1.89,0,0,0-.08.78.44.44,0,0,0,.45.41,1.09,1.09,0,0,0,.6-.41,8.58,8.58,0,0,0,.87-1.29,15.45,15.45,0,0,0,1.68-4.18c.09-.37-.49-.46-.57-.09a14.38,14.38,0,0,1-1.16,3.11,15.11,15.11,0,0,1-.79,1.42c-.06.08-.64.93-.72.86s.23.06.2.06,0,.1,0,0,0-.2,0-.29c0-.25.11-.5.17-.74.15-.55.33-1.09.53-1.62a20.92,20.92,0,0,1,1.38-3.1,4.93,4.93,0,0,1,.4-.61l.15-.16,0,0h0a.16.16,0,0,1-.12,0c.06,0,0,0,0,0a.14.14,0,0,1,0,.06v.06a.86.86,0,0,1,0,.16,4.06,4.06,0,0,1-.13.85C99,28.5,99.54,28.6,99.62,28.23Z"/><path class="cls-2" d="M49.83.68a.66.66,0,0,1,0,.48,2.06,2.06,0,0,1-.3.41,1.29,1.29,0,0,1-.38.18c-.33,0-2.34.66-6,1.79S34.6,6.14,28.8,8l-2.37.73L23.59,20.3l-2,8.22c-.52,2.22-.76,3.37-.77,3.49s.76-.27,2-.81l4.71-1.9c1.89-.77,3.55-1.46,5-2s2.25-.88,2.48-.94a1.48,1.48,0,0,1,1.24.14.72.72,0,0,1,.31.81c-.08.29-.39.54-.91.75-.23.09-.75.3-1.58.67s-1.7.76-2.72,1.21-2.17,1-3.44,1.52l-3.34,1.41-2.47,1c-.72.29-1.22.49-1.44.6a1,1,0,0,0-.51.52,10.41,10.41,0,0,0-.56,1.52c-.19.74-.48,1.87-.83,3.35s-.79,3.39-1.34,5.76-1,4.58-1.48,6.71c-.22,1.12-.47,2.15-.69,3.17-.71,3.35-1.34,6.25-1.87,8.71s-1,4.51-1.38,6.2-.71,3.1-1,4.16-.5,1.91-.66,2.49A7.42,7.42,0,0,1,10,78.3c-.13.22-.26.34-.34.36a.66.66,0,0,1-.38-.07.64.64,0,0,0-.14-.06,1,1,0,0,1-.59-1A14.79,14.79,0,0,1,9,74.65a104.22,104.22,0,0,0,2.13-12.92,44,44,0,0,0,.1-9.7,10,10,0,0,0-1-3.29,19.78,19.78,0,0,0-2.4-3.42,10.44,10.44,0,0,1-2-2.88,2.34,2.34,0,0,1,.15-2c1-1.8,4.29-3.9,10-6.35l2.4-1,2.93-11.71c.81-3.31,1.5-6.11,2-8.41s.84-3.44.83-3.5-.82,0-2.29.47-3.3,1.07-5.42,1.83-4.25,1.56-6.33,2.4S6.35,15.77,5,16.43c-.08.05-.17.07-.25.12-.91.39-1.25.62-1.07.73a11.57,11.57,0,0,0,2.77.33l.56.05a14.88,14.88,0,0,1,3.49.53c.7.26,1,.63,1.1,1.11a.94.94,0,0,1-.23.69.73.73,0,0,1-.54.3.48.48,0,0,1-.54-.24c-.13-.33-2.07-.58-5.83-.71a11.94,11.94,0,0,1-3-.33,1.18,1.18,0,0,1-.93-.88,1.63,1.63,0,0,1,0-.66,1,1,0,0,1,.2-.56q1.82-2.38,14.58-7c2-.74,4-1.4,5.76-2s4.5-1.37,8.06-2.38S38,3.08,45.22,1.08c1-.26,1.74-.47,2.29-.59A7.54,7.54,0,0,1,48.73.26a1.65,1.65,0,0,1,.63.1A.83.83,0,0,1,49.83.68ZM16.89,39.84c.23-1.12.4-2,.5-2.58a6,6,0,0,0,.1-1.14c0-.17-.09-.25-.2-.23a15.79,15.79,0,0,0-2.38,1c-1.2.58-2.36,1.18-3.52,1.81A22.19,22.19,0,0,0,9.07,40.1c-.88.66-1.32,1.22-1.32,1.64a5.25,5.25,0,0,0,1.48,2.2,19.15,19.15,0,0,1,3,4.51,15.14,15.14,0,0,1,1.16,4.89l.15,1.45.22-1c.1-.36.33-1.47.76-3.39.38-1.76.82-3.8,1.35-6.1C16.32,42.46,16.64,41,16.89,39.84Z"/><path class="cls-3" d="M49.53.68C49.51,2.05,43.86,3,43,3.26c-2.95.9-5.89,1.8-8.84,2.72-2.14.67-5.43,1-7.35,2.29-.79.52-.44.15-.85,1.06-1.31,2.93-1.65,6.74-2.41,9.86-1,4.2-2.36,8.46-3,12.74,0,.2.13.44.36.36,2.13-.71,4.2-1.68,6.28-2.53,1.31-.53,2.62-1.07,3.94-1.59.54-.22,5-2.45,4.15-.27-.13.36-1.8.78-2.15.93-1.47.65-2.93,1.32-4.4,2S25.88,32,24.43,32.62c-1.15.47-2.88.79-3.86,1.59-1.27,1-1.43,3-1.79,4.52-.84,3.4-1.6,6.82-2.36,10.24C15,55.56,13.56,62.18,12.1,68.78c-.55,2.52-1.06,5-1.76,7.53a9.51,9.51,0,0,1-.42,1.43c-1.8.52-.74-2.49-.64-3,.37-1.85.79-3.69,1.12-5.55,1-5.53,1.95-11.58,1.11-17.19a12.64,12.64,0,0,0-2.76-6c-.74-1-2-1.91-2.35-3.1-.79-2.65,1.16-3.9,3-5.08a48,48,0,0,1,7.21-3.59c.65-.28,1.7-.49,2.14-1.06.68-.87.76-3,1-4.08l1.5-6c1.11-4.45,2.59-9,3.25-13.52a.29.29,0,0,0-.2-.36c-1.15-.37-3,.63-4,1-2.9,1-5.76,2-8.59,3.1-1.16.45-8.37,2.56-8.35,4a.31.31,0,0,0,.22.28A9.61,9.61,0,0,0,6,17.87c.5,0,6,.39,4.42,1.88,0,0-3.79-.6-3.91-.61-1.17-.07-6.71.34-5.29-2.35.34-.66,1.6-1.19,2.24-1.55a61.49,61.49,0,0,1,8.3-3.66c6-2.3,12.11-4.23,18.31-6,2.68-.76,5.35-1.5,8-2.24l5-1.39c1.47-.41,5.19-2,6.61-1,.31.21.61-.3.3-.51-1.62-1.09-4.3.23-6,.69-3.72,1-7.42,2.05-11.13,3.09C26.93,5.86,21,7.56,15.18,9.67c-3.07,1.11-6.13,2.25-9.11,3.6-1.66.75-3.94,1.6-5.21,3C-2.52,20,5.79,19.66,7.31,19.78a11.45,11.45,0,0,1,2.26.28l1.08.49c.39-.05.27.19.83-.31,1-.91-.07-1.92-.87-2.3a6.59,6.59,0,0,0-1.91-.41c-.9-.12-3.7.17-4.37-.4-.33-.29-.68.31.53-.33.57-.3,1.17-.55,1.75-.81,2.24-1,4.53-1.89,6.81-2.75,2-.77,4.08-1.51,6.13-2.2.89-.3,3.35-1.59,4.16-1.27.42.16,0-.48.05.55a6.81,6.81,0,0,1-.37,1.53c-.51,2.11-1,4.22-1.52,6.32C21,21.94,20,25.7,19.07,29.46a24.72,24.72,0,0,1-.82,3.42c-.39.43-1.56.65-2.14.9-1.65.7-3.29,1.44-4.88,2.28S7.47,38,6.29,39.57c-1.41,1.88-.67,3.31.59,5,2.41,3.3,4,5.27,4.25,9.56a62.05,62.05,0,0,1-.86,12.17c-.14,1-3.61,13.2-.61,12.61,1.26-.25,1.51-3.45,1.73-4.31.8-3.27,1.48-6.57,2.21-9.85,1.73-7.74,3.3-15.52,5.11-23.24.33-1.45.66-2.91,1.05-4.34.69-2.53,2.73-3.16,4.94-4.07,2.94-1.21,5.83-2.52,8.73-3.8.81-.36,3.79-1,3.46-2.48-.28-1.28-1.9-.75-2.7-.52-3.42,1-6.74,2.7-10,4a16.87,16.87,0,0,0-2.2.89l-1,.4c.18.38.27.36.27-.05-.36-1,.82-3.57,1.06-4.56Q24,20,25.71,12.86c.31-1.24.63-3.61,1.27-4a15.41,15.41,0,0,1,3.05-1l6.29-2C40,4.78,43.74,3.62,47.46,2.52c1.15-.34,2.64-.38,2.66-1.84A.3.3,0,0,0,49.53.68Z"/><path class="cls-3" d="M17.18,39.91c.12-.62,1.3-4.35,0-4.3a8.13,8.13,0,0,0-2.61,1.11q-2,1-3.95,2.07c-1.05.58-3.64,1.8-3.1,3.33a8.1,8.1,0,0,0,1.72,2.31A19.25,19.25,0,0,1,11.72,48a18.47,18.47,0,0,1,1.58,6.8c0,.3.5.43.58.08q1.59-7.48,3.3-15c.08-.36-.49-.52-.57-.15q-1.69,7.45-3.3,15l.58.08a22.71,22.71,0,0,0-1.11-5.89A14.83,14.83,0,0,0,11,45.74c-.82-1.17-1.95-2.16-2.68-3.37-.37-.61-.3-.91.2-1.44A6.87,6.87,0,0,1,10,39.85c1.23-.75,2.51-1.41,3.78-2.06.72-.36,1.45-.72,2.19-1.06.18-.08,1.15-.65,1.3-.52A8.07,8.07,0,0,1,17,37.8c-.12.65-.26,1.3-.39,2C16.54,40.13,17.1,40.28,17.18,39.91Z"/><path class="cls-2" d="M29.48,51a1.65,1.65,0,0,1-1.29-.34c-.72-.62-.94-1.72-.67-3.27a20,20,0,0,1,2.71-6.9c1.35-2.29,2.7-3.69,4-4.2a1.68,1.68,0,0,1,1.37.26,1.82,1.82,0,0,1,.69,1.27,6.68,6.68,0,0,1-1,3.39A20.25,20.25,0,0,1,32.64,45c-1,1.08-1.81,1.64-2.44,1.63-.1,0-.19.11-.27.3a2.88,2.88,0,0,0-.2.69,2.34,2.34,0,0,0-.08.71c0,.25,0,.39.11.46.29.24,1.78-.8,4.44-3.06,1.42-1.23,2.58-2.23,3.42-2.94s1.51-1.2,1.93-1.48.73-.38.92-.33.29.2.35.46S39.56,43.17,36.47,46c-1.24,1.17-2.38,2.16-3.37,3a15.81,15.81,0,0,1-1.89,1.53A4.19,4.19,0,0,1,29.48,51Zm3-10.1a8.93,8.93,0,0,0-.74,1.26,2,2,0,0,0-.3.8c0,.12.18,0,.44-.31a14.92,14.92,0,0,0,.87-1.24,12.17,12.17,0,0,0,.8-1.39L34,39l-.68.73C33.11,40.06,32.8,40.43,32.51,40.89Z"/><path class="cls-3" d="M29.48,50.7c-2.94.1-1.49-4.45-1-6A19.41,19.41,0,0,1,32.38,38c.62-.67,1.58-1.65,2.56-1.4,1.46.37,1,2.12.65,3.13a16.77,16.77,0,0,1-1.91,3.44A10.21,10.21,0,0,1,31.14,46c-.64.42-1.26.23-1.55,1-.17.46-.53,1.71,0,2.06s2.17-1,2.62-1.35c1.77-1.36,3.42-2.87,5.11-4.31a20.59,20.59,0,0,1,2.35-1.83,2.91,2.91,0,0,1,.35-.2l.13-.07q.21-.14.27.09c.22.1,0,.31.1.08a1.67,1.67,0,0,1-.31.44,47.58,47.58,0,0,1-4.69,4.51c-1,.89-2,1.74-3,2.6a5.5,5.5,0,0,1-3.11,1.7c-.37,0-.37.62,0,.58a4.8,4.8,0,0,0,2.62-1.1c1-.8,1.94-1.64,2.89-2.49A68.53,68.53,0,0,0,40.4,42.6c.24-.27.66-.65.72-1a.81.81,0,0,0-.91-.9,6.26,6.26,0,0,0-2.38,1.57c-1,.76-1.89,1.58-2.82,2.39s-2.16,1.87-3.3,2.74c-.34.26-.69.52-1.06.75-.15.1-.52.41-.72.38A3.1,3.1,0,0,1,30.26,47c.24-.22.78-.27,1.09-.47A10,10,0,0,0,34,43.78a18.51,18.51,0,0,0,2.08-3.64,4.26,4.26,0,0,0,.4-2.84A2,2,0,0,0,34.13,36,5.46,5.46,0,0,0,32,37.58a20,20,0,0,0-4.4,8.24c-.5,1.88-1.07,5.57,1.91,5.46A.29.29,0,0,0,29.48,50.7Z"/><path class="cls-3" d="M32.26,40.74a9.51,9.51,0,0,0-.59,1,7.1,7.1,0,0,0-.42.88c-.08.22-.14.51.09.66s.45-.05.61-.2a9.41,9.41,0,0,0,1.17-1.62A12.43,12.43,0,0,0,33.89,40l.41-.9c.12-.28-.22-.62-.46-.36a12.92,12.92,0,0,0-1.58,2,.29.29,0,0,0,.5.3,12.62,12.62,0,0,1,1.49-1.84l-.46-.36c-.21.46-.4.93-.64,1.37a17,17,0,0,1-.9,1.47c-.14.22-.3.42-.45.63a3.47,3.47,0,0,1-.25.29s-.09.07-.11.11,0,0,0,0h.15l.18.21v0s0,0,0,0l.06-.17a5.2,5.2,0,0,1,.26-.53A9.54,9.54,0,0,1,32.76,41C33,40.73,32.47,40.43,32.26,40.74Z"/><path class="cls-2" d="M44.53,33.32A8.6,8.6,0,0,1,44.12,35c-.14.55-.3,1-.42,1.46s-.17.68-.18.77.11,0,.36-.39.55-.76.94-1.33a8.15,8.15,0,0,1,1.83-2.19,2,2,0,0,1,1.73-.25,2.66,2.66,0,0,0,1.55,0,5.81,5.81,0,0,0,1.76-1.2c1.39-1.2,2.16-1.38,2.37-.48a1.23,1.23,0,0,1-.27,1A9.2,9.2,0,0,1,52.09,34c-1.54,1.24-2.8,1.65-3.83,1.28a1,1,0,0,0-.51-.09,1.38,1.38,0,0,0-.56.46c-.21.26-.54.67-1,1.29-1.06,1.46-2.19,3.24-3.41,5.31a51.24,51.24,0,0,0-2.68,5.07c-.66,1.61-1.22,2.47-1.71,2.58,0,0-.09,0-.2-.07l-.41-.21a2,2,0,0,1-.34-.31.6.6,0,0,1-.21-.26,4.79,4.79,0,0,1,.25-1c.16-.61.39-1.3.66-2.12s.69-2,1.21-3.56,1-3,1.49-4.56.86-2.59,1.13-3.35a11.52,11.52,0,0,1,.69-1.65c.2-.29.37-.48.54-.52a.85.85,0,0,1,1.06.24A.94.94,0,0,1,44.53,33.32Z"/><path class="cls-3" d="M44.23,33.32a16.84,16.84,0,0,1-.73,2.79c-.09.29-.47,1.06-.17,1.33a.3.3,0,0,0,.41,0,9.11,9.11,0,0,0,1.33-1.8c.54-.79,1.19-2,2.18-2.3s1.7.29,2.55.1a4,4,0,0,0,1.62-.93,13.55,13.55,0,0,1,1.4-1.1c.23-.13.41-.27.69-.19.51.15.24.77,0,1.08a8.77,8.77,0,0,1-2.42,2.08,3.5,3.5,0,0,1-2.58.7c-.8-.17-1-.23-1.59.45a34.7,34.7,0,0,0-3,4.25c-1.14,1.8-2.23,3.64-3.2,5.54q-.49,1-.93,2c-.2.45-.75,2.21-1.38,2.31a1.11,1.11,0,0,1-.9-.65c-.06-.3.26-.91.34-1.19.27-.92.59-1.83.9-2.74.75-2.19,1.45-4.4,2.18-6.6.35-1,.69-2.11,1-3.15.15-.44.3-.88.47-1.31a4.42,4.42,0,0,1,.27-.63c.34-.63,1.43-1,1.45,0a.3.3,0,0,0,.59,0,1.27,1.27,0,0,0-1.1-1.38c-.85-.06-1.28.67-1.57,1.35-1,2.37-1.72,4.93-2.52,7.39s-1.7,4.85-2.4,7.31c-.25.87-.45,1.28.37,1.86.45.32.84.49,1.3.15a5.53,5.53,0,0,0,1.37-2.23c.47-1.09,1-2.14,1.56-3.19a69.83,69.83,0,0,1,4.4-7.14c.35-.48.69-1,1.07-1.44s.86-.35,1.46-.29a4.35,4.35,0,0,0,2.78-.92c.82-.55,4-2.71,2.49-4-.6-.52-1.47.09-2,.46s-1,.91-1.62,1.29a2.62,2.62,0,0,1-2.14.24c-2.72-.47-3.37,2.86-5,4.28h.41c.15.14,0,.21.11,0a2.27,2.27,0,0,0,.14-.51c.12-.44.25-.87.37-1.3a11.55,11.55,0,0,0,.46-1.91C44.86,32.94,44.27,33,44.23,33.32Z"/><path class="cls-2" d="M55.1,45.34a1.74,1.74,0,0,1-2,0,2.18,2.18,0,0,1-1-1.4,8.66,8.66,0,0,1,.43-3.41A40.38,40.38,0,0,1,54,35.76,7,7,0,0,1,55.59,33a1.35,1.35,0,0,1,1,0c.4.17.63.39.69.65a3.53,3.53,0,0,1-.24,1c-.2.59-.43,1.28-.73,2.08-.6,1.5-1,2.85-1.39,4a5.78,5.78,0,0,0-.34,2c.07,0,.35-.17.89-.6s1.17-1,1.92-1.66c3.13-3.12,5.08-4.93,5.86-5.36s1.23-.31,1.38.35c.1.4-.19.89-.91,1.42-.34.26-1.09,1-2.34,2.34s-2.22,2.33-3,3.11A17,17,0,0,1,55.1,45.34Zm1.32-13.83a1,1,0,0,1-.37-.13.69.69,0,0,1-.32-.35,2,2,0,0,1-.23-.46c-.17-.75.66-1.34,2.5-1.79a5.41,5.41,0,0,1,1-.27.5.5,0,0,1,.46,0,.94.94,0,0,1,.23.46s0,.06,0,0a1.94,1.94,0,0,1,.07.41.55.55,0,0,1-.23.33,4.22,4.22,0,0,1-.82.52c-.37.24-.91.52-1.61.89a2,2,0,0,1-.38.21A.84.84,0,0,1,56.42,31.51Z"/><path class="cls-3" d="M55,45.08a1.75,1.75,0,0,1-2.47-.94,3.66,3.66,0,0,1,0-2A33.76,33.76,0,0,1,54,36.59,16.61,16.61,0,0,1,55.16,34a2.07,2.07,0,0,1,.53-.71c.33-.21,1.25,0,1.34.44.06.24-.16.68-.24.9-.12.39-.25.77-.39,1.16-.31.88-.67,1.76-1,2.65a27.53,27.53,0,0,0-.88,2.8,3.81,3.81,0,0,0-.2,1.67.26.26,0,0,0,.2.2c.52.09,1.14-.64,1.49-.93.86-.72,1.67-1.46,2.46-2.25,1.28-1.27,2.56-2.55,3.94-3.71a5.75,5.75,0,0,1,1-.75c.45-.25,1.14-.28.9.45-.14.43-.6.68-.92,1-1.41,1.23-2.64,2.7-3.94,4S56.71,44.13,55,45.08c-.33.18,0,.69.3.51a19.58,19.58,0,0,0,4.32-3.86,57.23,57.23,0,0,1,4.35-4.46c.57-.47,1.27-1.06,1-1.89s-1-.76-1.6-.47a13,13,0,0,0-3,2.46c-1,.94-2,1.9-2.93,2.86-.5.49-1,1-1.58,1.41l-.6.49a4.46,4.46,0,0,0-.43.33c-.06.06-.27.1-.09.13l.2.2a2.26,2.26,0,0,1,.1-.89c.12-.55.27-1.09.44-1.62.34-1.1.73-2.18,1.14-3.26a16.39,16.39,0,0,0,1-3c.11-.68-.47-1.13-1.08-1.29a1.38,1.38,0,0,0-1.65.7,12.75,12.75,0,0,0-1.31,2.8c-.46,1.22-.84,2.48-1.18,3.74a15.63,15.63,0,0,0-.6,3c-.14,1.95,1.58,3.56,3.48,2.6C55.58,45.42,55.29,44.91,55,45.08Z"/><path class="cls-3" d="M56.42,31.21c-.31,0-.48-.35-.59-.6a.47.47,0,0,1,0-.4c.11-.3.53-.53.85-.68a12.77,12.77,0,0,1,1.93-.62l.37-.1a1,1,0,0,1,.34,0s0,0,0,0l0,0c0,.05.05.09.07.14s.08.31.29.4l-.21-.21a.48.48,0,0,1,0,.35,1,1,0,0,1-.34.28c-.27.17-.56.33-.84.49l-.87.47-.56.31a1,1,0,0,1-.47.17c-.38,0-.38.61,0,.59a3.43,3.43,0,0,0,1.32-.56c.38-.2.76-.4,1.13-.63a4.14,4.14,0,0,0,1.07-.73c.25-.29.27-.94-.13-1.11L60,29a1.17,1.17,0,0,0-.41-.69,1,1,0,0,0-.77,0,8.79,8.79,0,0,0-.88.24c-.34.1-.67.18-1,.3-.72.25-1.83.72-1.77,1.66a1.78,1.78,0,0,0,.37.87,1.16,1.16,0,0,0,.86.49C56.79,31.83,56.79,31.25,56.42,31.21Z"/><path class="cls-2" d="M61.5,43.1a1.64,1.64,0,0,1-.61-.38,1.7,1.7,0,0,1-.44-.62,2.17,2.17,0,0,1-.05-1c.22-1.93,1.27-4.45,3.18-7.47A38.17,38.17,0,0,1,70,25.85c3.71-3.07,6-3.32,6.8-.72a2.38,2.38,0,0,1,0,1.49A.59.59,0,0,1,76,27a.79.79,0,0,1-.44-.32,1.36,1.36,0,0,1-.33-.5c-.28-.94-1.25-.68-2.94.8A28.4,28.4,0,0,0,67,32.73c-.54.79-1.13,1.69-1.72,2.64s-1.1,1.83-1.5,2.59-.55,1.16-.47,1.23a11.85,11.85,0,0,0,1.15-1.32c.7-.89,1.57-2,2.62-3.37S69,32,69.78,30.93s1.28-1.66,1.45-1.85a2.33,2.33,0,0,1,1.63-.83,1,1,0,0,1,1,.82,6.81,6.81,0,0,1-.17,1.4c-.15.79-.35,1.75-.62,2.81s-.42,2-.58,2.72a3.17,3.17,0,0,0-.12,1.18,9.25,9.25,0,0,0,1.31-.88c.8-.61,1.76-1.41,2.91-2.35C78,32.85,79,32,79.76,31.5a3.81,3.81,0,0,1,1.49-.77c.31,0,.44.17.45.6,0,.17-.24.57-.79,1.18S79.29,34,77.8,35.32a33.18,33.18,0,0,1-4.56,3.6c-.94.55-1.65.63-2.1.28a1.79,1.79,0,0,1-.88-1.47,14.49,14.49,0,0,1,.35-3.44,1.67,1.67,0,0,0,.09-.81c0-.08-.25.09-.58.5s-.87,1.11-1.64,2.1c-1.9,2.53-3.31,4.29-4.25,5.35a5.35,5.35,0,0,1-2.15,1.71A1.06,1.06,0,0,1,61.5,43.1Z"/><path class="cls-3" d="M61.64,42.84c-1.73-.82-.71-3.2-.17-4.55a28.61,28.61,0,0,1,2.68-5c2.09-3.25,4.73-6.68,8.07-8.72,1-.63,2.69-1.5,3.71-.41.42.45,1.16,3.07-.19,2.32-.38-.2-.34-.85-.8-1.05-.88-.4-2,.59-2.58,1.09a28.43,28.43,0,0,0-3.73,3.63,38.51,38.51,0,0,0-3.72,5.24c-.49.79-1,1.6-1.4,2.43-.19.36-.63,1-.5,1.45a.3.3,0,0,0,.43.18A7.58,7.58,0,0,0,64.73,38c.62-.78,1.23-1.57,1.84-2.36,1.41-1.83,2.8-3.69,4.22-5.51.47-.61,1.18-1.69,2.07-1.56,1.38.2.46,2.55.29,3.34-.26,1.15-.53,2.3-.78,3.46a4.63,4.63,0,0,0-.25,1.91.3.3,0,0,0,.36.21,7.34,7.34,0,0,0,2.26-1.6C75.88,35,77,34,78.15,33.12c.36-.29,2.85-2.56,3.25-1.79.22.42-2.08,2.27-2.39,2.54a39.66,39.66,0,0,1-5.79,4.72c-.71.43-1.59.81-2.26.1a2.34,2.34,0,0,1-.41-1.8,18.35,18.35,0,0,1,.31-2.33A2.88,2.88,0,0,0,71,33.4a.3.3,0,0,0-.2-.21c-.56-.11-1,.76-1.32,1.13-.94,1.21-1.84,2.44-2.78,3.65-.69.89-1.4,1.78-2.12,2.64s-1.82,2.46-3,2.2c-.36-.08-.52.49-.15.57,1.37.3,2.48-1.11,3.28-2,1-1.2,2-2.46,3-3.72l1.94-2.56a7.49,7.49,0,0,0,.71-.89l.22-.26-.15,0c0,.35-.14.73-.2,1.08-.19,1.18-.6,2.84.17,3.91,1.75,2.43,5.4-1.42,6.76-2.59a44,44,0,0,0,4.11-3.73c.43-.48,1.38-2,.09-2.12-.59-.07-1.27.49-1.71.8-.7.49-1.36,1-2,1.56-.93.73-1.84,1.48-2.76,2.23-.47.38-.94.76-1.43,1.12a4,4,0,0,1-1.08.73l.36.21a3.93,3.93,0,0,1,.25-1.61c.14-.64.27-1.29.41-1.93.28-1.25.62-2.48.78-3.75.22-1.63-1.13-2.34-2.51-1.44A7.39,7.39,0,0,0,70,30.15c-.75,1-1.49,1.93-2.22,2.9-.89,1.17-1.77,2.33-2.67,3.48a11.32,11.32,0,0,1-2,2.41l.43.18c-.06-.22.42-1,.52-1.14.22-.41.45-.82.69-1.22.58-1,1.19-2,1.83-2.95a30.18,30.18,0,0,1,4.48-5.41,17.56,17.56,0,0,1,2.45-2c.39-.24.87-.59,1.25-.25s.34.63.63.89c1.07.94,1.82-.3,1.73-1.35a2.8,2.8,0,0,0-1.72-2.49c-1.19-.38-2.51.3-3.5.9-3.6,2.2-6.39,5.91-8.6,9.43a24.2,24.2,0,0,0-2.85,5.85c-.45,1.5-.82,3.2.87,4C61.69,43.51,62,43,61.64,42.84Z"/><path class="cls-2" d="M96.35,4.89c-1.07,4-2.15,8.41-3.27,13.13s-2,8.68-2.65,11.89q-.56,2.91-1.08,5.53c-.35,1.75-.61,3-.78,3.73s-.34,1.53-.5,2.39-.33,1.47-.44,2-.26,1.24-.43,2.07-.32,1.53-.46,2.2-.34,1.56-.56,2.7-.44,2.29-.67,3.4c-.25,1.43-.48,2.63-.7,3.65-.09.54-.16.89-.21,1.08a1.42,1.42,0,0,1-.5,1,.71.71,0,0,1-.8.06.7.7,0,0,1-.26-.3,1.72,1.72,0,0,1-.05-.78c0-.36.06-.89.13-1.64s.28-1.7.48-2.93.45-2.74.78-4.6.72-4.11,1.21-6.71c.48-2.75,1-5.44,1.46-8.1S88,30,88.25,28.6s.48-2.39.66-3.31.28-1.4.28-1.43-.09,0-.17.19a7.64,7.64,0,0,0-.32.71,4.35,4.35,0,0,0-.29.86,1.53,1.53,0,0,0,0,.61.85.85,0,0,1-.05.44A1.17,1.17,0,0,1,88,27a4.45,4.45,0,0,0-.58.8,12.56,12.56,0,0,0-.8,1.49c-.74,1.53-1.67,3.17-2.74,4.94a25.68,25.68,0,0,1-2.59,3.63A3.6,3.6,0,0,1,79.88,39a1.6,1.6,0,0,1-1.29-.36,1.69,1.69,0,0,1-.69-.6,1.9,1.9,0,0,1-.17-.87,17.83,17.83,0,0,1,1.61-6.53,17.82,17.82,0,0,1,3.54-5.67,4.83,4.83,0,0,1,3.79-1.31c.26-.08,1-1.55,2-4.38s2.44-6.51,3.91-11c.59-1.69,1.1-3.14,1.58-4.34a8.75,8.75,0,0,1,.94-2.1.83.83,0,0,1,.53-.3,1.56,1.56,0,0,1,.67.27l.68.44Zm-11.29,23a6.14,6.14,0,0,0,.76-1.84c-.14-.06-.39,0-.7.28a6.15,6.15,0,0,0-1,1.06,9.45,9.45,0,0,0-1,1.47,27.11,27.11,0,0,0-1.35,2.83,25.53,25.53,0,0,0-1,2.71l-.17.71.6-.69a12.39,12.39,0,0,0,.74-1c.29-.43.58-.89.86-1.38C83.73,30.4,84.5,29,85.06,27.91Z"/><path class="cls-3" d="M96.07,4.81c-3.88,14.75-6.94,29.69-10,44.63-.37,1.82-.71,3.65-1.06,5.48-.16.8-.58,5.12-1.75,3.39-.5-.74.67-4.73.85-5.76.31-1.87.64-3.74,1-5.6,1.36-7.68,3.13-15.32,4.35-23,0-.26-.28-.53-.49-.29-1,1.08-1,2.78-1.8,4-1.59,2.63-2.8,5.44-4.56,8-.85,1.25-2.79,4.37-4.24,2.07-.87-1.38.06-3.73.54-5.2a23.39,23.39,0,0,1,2.39-5.12,10.37,10.37,0,0,1,1.78-2.28l2-1.09a12.49,12.49,0,0,0,1.62-.13c.85-.5,1.18-1.87,1.55-2.73,1.17-2.79,2.19-5.65,3.19-8.51.61-1.77,1.19-3.56,1.81-5.34.44-1.26.88-3.76,1.78-4.72,2.22-2.38,1.27,1.25,1,2.2a.29.29,0,0,0,.56.16l.69-2.68A.31.31,0,0,0,97.18,2c-.87-.57-1.39-1-2.28-.31a6.26,6.26,0,0,0-1,2.17C93.24,5.59,92.62,7.38,92,9.18,91,12.3,89.89,15.41,88.7,18.49c-.51,1.32-.85,3.27-1.81,4.31-.65.7-1.86.55-2.78,1-2,.88-3.23,3.07-4.18,4.9-1.2,2.31-2.83,5.75-2.49,8.47a2.13,2.13,0,0,0,1.76,2.09c1.49.26,2.49-1.29,3.27-2.33,1.94-2.57,3.22-5.47,4.81-8.24.38-.65,1-1.24,1.32-1.9.17-.36.76-4.11.27-2.79a12.94,12.94,0,0,0-.38,2c-1.37,7-2.7,13.89-3.94,20.86C84,50,83.39,53.15,82.93,56.35c-.13.92-.85,3.12.29,3.67C85.59,61.15,86.72,49.36,87,48c3-14.38,5.87-28.77,9.61-43A.29.29,0,0,0,96.07,4.81Z"/><path class="cls-3" d="M85.31,28.06a12.09,12.09,0,0,0,.74-1.64c.08-.26.12-.57-.22-.65s-1,.42-1.32.73a9.22,9.22,0,0,0-1.37,1.74,25,25,0,0,0-1.92,4,21.23,21.23,0,0,0-.9,2.8c-.06.27.29.52.49.28a18.5,18.5,0,0,0,2-2.78c.88-1.46,1.71-3,2.47-4.49.17-.34-.34-.64-.5-.3-.74,1.48-1.55,2.93-2.39,4.35a18.7,18.7,0,0,1-2,2.81l.49.28A24.11,24.11,0,0,1,82.38,31a18.36,18.36,0,0,1,1.31-2.53,8.57,8.57,0,0,1,.92-1.23c.2-.22.8-1,1.13-.89l-.21-.2c0-.09,0,0,0,.08s-.09.26-.14.37c-.16.39-.35.78-.54,1.16S85.15,28.4,85.31,28.06Z"/><path class="cls-2" d="M98.29,31.37a13.26,13.26,0,0,1-2.21,3.15c-1.21,1.31-2.29,1.65-3.19,1-1.86-1.36-1.34-4.88,1.54-10.61a7.88,7.88,0,0,1,2.22-3.12,2.62,2.62,0,0,1,2.43,0c.84,1.27,1.37,1.84,1.53,1.77l3-.68c.83-.2,1.34-.35,1.46-.37a3.61,3.61,0,0,0,.72-.29,3.68,3.68,0,0,1,1.51-.44c.28.06.49.28.59.71s-.7,1.07-2.36,1.76a15.36,15.36,0,0,1-5,1.23A33.92,33.92,0,0,1,98.29,31.37Zm-.87-4.44c.21-.9.16-1.37-.09-1.43s-.54.42-1,1.22a18,18,0,0,0-1.21,2.76,14.86,14.86,0,0,0-.78,2.67c0,.52.15.54.56.08a10.93,10.93,0,0,0,1.38-2.29A15.44,15.44,0,0,0,97.42,26.93Z"/><path class="cls-3" d="M98,31.22c-.79,1.47-1.89,3.37-3.46,4.13-1.16.57-2.11-.32-2.38-1.41a6.77,6.77,0,0,1,.24-3.31,26.73,26.73,0,0,1,1.86-4.78c.59-1.22,1.28-3.06,2.5-3.8a2,2,0,0,1,1.55-.16c.52.12.69.4,1,.8a4.07,4.07,0,0,0,.94,1.08c.48.27,1.28-.1,1.76-.21.88-.21,1.75-.4,2.62-.63.67-.17,1.26-.48,1.91-.69.33-.12,1.17-.24,1,.43-.07.26-.51.5-.71.62a14.54,14.54,0,0,1-6.39,1.92.3.3,0,0,0-.28.21A33,33,0,0,1,98,31.22c-.18.33.33.63.5.29a33,33,0,0,0,2.19-5.93l-.28.21A15.89,15.89,0,0,0,106.87,24c.45-.25,1.06-.58,1.24-1.1a1.12,1.12,0,0,0-.56-1.26c-.59-.28-1.4.16-1.94.4a11.87,11.87,0,0,1-2.13.63l-1.32.3a9.07,9.07,0,0,1-1.52.36c-.16,0,0,.09-.16-.1-.28-.36-.58-.7-.84-1.07s-.33-.54-.75-.68a3.38,3.38,0,0,0-1.48-.19c-1.55.19-2.41,1.94-3,3.16a31.29,31.29,0,0,0-2.45,5.89,7.46,7.46,0,0,0-.27,3.86,2.37,2.37,0,0,0,2.45,2,4.33,4.33,0,0,0,2.41-1.62,14,14,0,0,0,2-3C98.72,31.18,98.22,30.89,98,31.22Z"/><path class="cls-3" d="M97.7,27a2.36,2.36,0,0,0,0-1.53.5.5,0,0,0-.81-.1A4.42,4.42,0,0,0,96,26.76a20,20,0,0,0-.84,1.82c-.28.7-.53,1.4-.75,2.11-.09.31-.17.61-.24.93a2.07,2.07,0,0,0-.09.82c.09.5.55.47.87.19a5.35,5.35,0,0,0,1-1.31A15.34,15.34,0,0,0,97.7,27c.08-.37-.48-.53-.57-.16a13.8,13.8,0,0,1-1.09,3,14.69,14.69,0,0,1-.73,1.35,3.85,3.85,0,0,1-.73,1l-.09.08,0,0,.21,0s0-.27,0-.32c0-.23.1-.46.16-.69.14-.53.31-1.06.5-1.57a21.5,21.5,0,0,1,1.31-3,5.64,5.64,0,0,1,.4-.67l.3-.31c0-.13-.14,0-.15,0a2,2,0,0,0,0,.24,3.42,3.42,0,0,1-.13.84C97.05,27.22,97.61,27.38,97.7,27Z"/><path class="cls-4" d="M49.43.73c.25,1.18-3.65,1.84-4.22,2L38.45,4.81,31,7.13,28.14,8a7.26,7.26,0,0,0-1.9.59c-.3.23-.28.4-.39.83L25,12.91c-.58,2.4-1.17,4.81-1.76,7.21-.53,2.19-1,4.37-1.58,6.56A44.69,44.69,0,0,0,20.44,32a.09.09,0,0,0,.1.08c3-.92,5.84-2.35,8.71-3.52q2.17-.88,4.37-1.73c.36-.14,1.23-.6,1.63-.47,2.42.81-.37,1.77-.62,1.91s-.59.25-.87.38c-3.67,1.6-7.31,3.25-11,4.75a8.09,8.09,0,0,0-2.69,1.2c-.84.86-1,2.6-1.27,3.71-1.86,7.49-3.42,15-5,22.6q-1.14,5.28-2.33,10.56c-.33,1.5-.67,3-1.07,4.5a9.5,9.5,0,0,1-.53,1.82c-.35.61-1,1.13-1.45.09a3.19,3.19,0,0,1,.05-1.44C9,72.63,10,68.87,10.52,65a60.8,60.8,0,0,0,.66-10.7A13.27,13.27,0,0,0,8.31,46.2C7.28,44.87,5,43,5.59,41c.35-1.23,1.63-2.16,2.62-2.85a43.69,43.69,0,0,1,8.34-4.26c1.1-.46,1.58-.37,1.84-1.44C19.26,29,20.14,25.49,21,22q1.07-4.28,2.08-8.57c.21-.89.43-1.78.65-2.68.05-.23.36-.95.27-1.19s-.14-.11-.45-.17a6.12,6.12,0,0,0-2.32.62l-2.56.84c-2.16.74-4.32,1.53-6.46,2.35-1.84.71-3.67,1.43-5.48,2.22-.92.4-2.9.92-3.53,1.76a.11.11,0,0,0,0,.08c.14.25.52.23.77.27,1.22.2,2.47.2,3.7.32a12.54,12.54,0,0,1,1.92.29c.23.06.8.17.89.31S9.93,20,10,20a10.51,10.51,0,0,1-1-.32c-2.32-.42-4.71-.16-7-.52C1,19,0,18.53.35,17.37a1.47,1.47,0,0,1,.53-.87,8.06,8.06,0,0,1,1.7-1.18c4.42-2.6,9.47-4.24,14.28-5.94,4.65-1.64,9.37-3,14.11-4.31l8-2.23,4.8-1.33c1.18-.33,4.69-1.8,5.69-.74a.08.08,0,0,0,.11-.12A1.91,1.91,0,0,0,47.67.33c-1.9.35-3.77,1-5.62,1.49L32.75,4.4C27,6,21.33,7.6,15.74,9.61c-3.13,1.13-6.26,2.28-9.31,3.62a24.54,24.54,0,0,0-5.29,2.85c-.79.61-1.68,1.76-.73,2.7a3.69,3.69,0,0,0,2.21.6c1.75.15,3.51.12,5.26.3a7.36,7.36,0,0,1,1.55.24c.24.09.49.38.69.44a.86.86,0,0,0,1-.3c1.32-1.56-1.9-2.18-2.74-2.29s-1.5-.15-2.25-.21c-.43,0-2,.11-2.33-.21s.48-.61.92-.82c.78-.36,1.56-.72,2.35-1.06,3.51-1.51,7.11-2.86,10.73-4.12,1.46-.51,2.93-1,4.41-1.45.27-.08,1.47-.53,1.65-.29s-.25,1.12-.29,1.29c-.8,3.31-1.59,6.62-2.4,9.92-.73,3-1.49,6-2.24,9-.2.78-.37,2.7-.81,3.26-.33.4-1.66.69-2.13.89-1.27.54-2.54,1.11-3.78,1.72A18.94,18.94,0,0,0,6.3,39.55c-1.54,1.73-.84,3.36.45,5a28.27,28.27,0,0,1,3,4.11A12.55,12.55,0,0,1,11,53.91a56.68,56.68,0,0,1-.5,10C10,68,9,72,8.32,76.06c-.11.67-.47,3.15,1.06,2.7.58-.17.79-1.55.9-2,.4-1.4.74-2.82,1.06-4.24.76-3.28,1.48-6.58,2.19-9.87,1.54-7.21,3.07-14.41,4.75-21.59.33-1.41.66-2.83,1-4.24.22-.78.39-1.8,1.11-2.28A13.8,13.8,0,0,1,23,33.5c3.2-1.31,6.37-2.7,9.53-4.11.69-.31,4.55-1.27,3.71-2.68-.38-.65-1.25-.48-1.84-.31A38.25,38.25,0,0,0,30.35,28c-3.05,1.22-6.07,2.52-9.13,3.71a3.15,3.15,0,0,1-.5.19c-.38-.19.08.3-.07-.11-.09-.25.19-.91.25-1.16.34-1.53.71-3.05,1.08-4.57q1.39-5.82,2.82-11.64L26,9.48c.08-.32.12-.6.27-.71a7.81,7.81,0,0,1,2.18-.68c6.21-1.93,12.4-3.88,18.62-5.74.82-.25,2.77-.41,2.51-1.66A.08.08,0,0,0,49.43.73Z"/><path class="cls-4" d="M16.65,39.89c.11-.51,1.12-3.91.29-4a2.14,2.14,0,0,0-.79.28c-.6.25-1.18.53-1.76.81q-2,1-4,2.07c-.95.53-3.47,1.68-3,3.09A7.64,7.64,0,0,0,9.1,44.32a20.18,20.18,0,0,1,2.49,3.59,18.91,18.91,0,0,1,1.6,6.91c0,.09.14.12.16,0q1.61-7.49,3.3-15a.08.08,0,0,0-.16,0c-.75,3.32-1.47,6.65-2.19,10-.28,1.26-.55,2.52-.84,3.78a3.9,3.9,0,0,0-.21.93c0,.1,0,.43.09.18a2.45,2.45,0,0,0-.07-.71,16.29,16.29,0,0,0-2.47-7.73c-.92-1.37-2.28-2.5-3.07-3.94s1.65-2.56,2.65-3.12a59.61,59.61,0,0,1,5.52-2.81c.11,0,.78-.43,1-.37.41.11.13,1.15.1,1.33-.13.83-.31,1.65-.48,2.48C16.47,40,16.63,40,16.65,39.89Z"/><path class="cls-4" d="M29.16,51c-3.16.1-1.74-4.57-1.17-6.24a19.67,19.67,0,0,1,3.92-6.83c.68-.73,1.69-1.73,2.76-1.45,1.59.43,1.24,2.24.8,3.39a16.5,16.5,0,0,1-1.93,3.49,10.52,10.52,0,0,1-2.62,2.86c-.57.38-1.19.2-1.44.9-.13.34-.51,1.55-.07,1.82.19.11.46,0,.63-.13a10.71,10.71,0,0,0,1.77-1.22c1.75-1.35,3.39-2.84,5.07-4.28a21.54,21.54,0,0,1,2.39-1.86,2.71,2.71,0,0,1,.37-.21c.33-.14.33-.17.6.08s.19.14.17.32-.25.37-.34.48a47.68,47.68,0,0,1-4.69,4.52c-1,.88-2,1.73-3,2.59A5.76,5.76,0,0,1,29.16,51c-.1,0-.1.17,0,.16a4.54,4.54,0,0,0,2.46-1c1-.79,1.95-1.64,2.9-2.48a70.45,70.45,0,0,0,5.41-5.1c.2-.23.63-.6.66-.93a.58.58,0,0,0-.67-.63c-.8.1-1.66,1-2.26,1.5-1,.76-1.89,1.58-2.82,2.39-1.1.95-2.19,1.9-3.34,2.77-.35.27-.7.52-1.06.76-.18.11-.55.42-.78.4-.55,0-.14-1.62.18-1.89s.74-.27,1.08-.49a9.75,9.75,0,0,0,2.54-2.66,18,18,0,0,0,2.08-3.61,4.09,4.09,0,0,0,.38-2.7,1.72,1.72,0,0,0-2.06-1.15,5.09,5.09,0,0,0-2.06,1.53,19.72,19.72,0,0,0-4.34,8.14c-.47,1.74-1.1,5.29,1.7,5.2C29.26,51.1,29.27,50.94,29.16,51Z"/><path class="cls-4" d="M32.12,40.88c-.21.31-.41.63-.59,1a7,7,0,0,0-.4.83c0,.1-.12.34,0,.42s.27-.1.34-.17a8.39,8.39,0,0,0,1.14-1.57A12.43,12.43,0,0,0,33.38,40l.41-.91c0-.07-.06-.17-.13-.09a13.55,13.55,0,0,0-1.54,1.91.08.08,0,0,0,.14.09,13.24,13.24,0,0,1,1.52-1.89l-.13-.1c-.23.51-.44,1-.72,1.52a16.7,16.7,0,0,1-1,1.55c-.17.23-.33.46-.52.67s-.16.14-.22.21,0,0,0,0,0-.1,0-.15a5.59,5.59,0,0,1,.4-.86c.18-.33.38-.64.59-1C32.32,40.88,32.18,40.8,32.12,40.88Z"/><path class="cls-4" d="M44.12,33.35a16.59,16.59,0,0,1-.74,2.85c-.06.2-.41,1-.22,1.13a.08.08,0,0,0,.11,0c1.31-1.16,1.8-3.6,3.6-4.16.86-.26,1.7.29,2.56.1A3.8,3.8,0,0,0,51,32.4a12.14,12.14,0,0,1,1.44-1.13.86.86,0,0,1,.86-.17c.65.21.46.87.14,1.34a8.93,8.93,0,0,1-2.5,2.16,3.65,3.65,0,0,1-2.73.72c-.74-.17-.85-.24-1.39.39a34.8,34.8,0,0,0-2.93,4.21c-1.14,1.8-2.22,3.64-3.2,5.54-.32.62-.63,1.25-.91,1.9S39,49.54,38.26,49.8c-.46.17-1.19-.45-1.22-.89a4.61,4.61,0,0,1,.34-1.19c.27-.92.59-1.83.9-2.74.75-2.19,1.46-4.4,2.19-6.6.34-1.05.68-2.11,1-3.15.16-.44.31-.88.48-1.31a5.24,5.24,0,0,1,.28-.69c.44-.79,1.83-1.13,1.85.12a.09.09,0,0,0,.17,0c0-.64-.4-1.25-1.12-1.15s-1,.92-1.29,1.54c-1,2.61-1.83,5.34-2.69,8q-.61,1.92-1.29,3.84c-.21.59-.4,1.2-.59,1.8A5,5,0,0,0,36.86,49,1.61,1.61,0,0,0,38,50c.45,0,.8-.53,1-.85A35.33,35.33,0,0,0,40.6,45.9c.63-1.26,1.33-2.49,2-3.71s1.52-2.53,2.34-3.76c.38-.55.76-1.1,1.16-1.65s.86-1.41,1.77-1.36a7.17,7.17,0,0,0,1.06.11,3.74,3.74,0,0,0,1.34-.42,10,10,0,0,0,3-2.37c.9-1.09.31-2.44-1.06-1.61s-2.21,2.26-4.08,1.92a2.49,2.49,0,0,0-2.62.85,16.8,16.8,0,0,0-1.28,1.73c-.24.35-1.08,1.3-1,1.55a3.11,3.11,0,0,1,.24-.93c.12-.41.24-.81.35-1.21a10.68,10.68,0,0,0,.41-1.69C44.3,33.25,44.14,33.25,44.12,33.35Z"/><path class="cls-4" d="M54.74,45.3a2,2,0,0,1-2.77-1,4,4,0,0,1,0-2.12,32.73,32.73,0,0,1,1.58-5.57A15.93,15.93,0,0,1,54.66,34a2.58,2.58,0,0,1,.56-.75c.46-.33,1.62-.05,1.71.59a2.9,2.9,0,0,1-.25,1c-.13.39-.26.77-.4,1.16-.31.89-.66,1.76-1,2.65s-.64,1.85-.87,2.8a3.48,3.48,0,0,0-.21,1.56s0,0,.06,0c.38.06,1-.66,1.28-.88.86-.71,1.67-1.46,2.46-2.25,1.28-1.26,2.56-2.54,3.94-3.71a6.65,6.65,0,0,1,1-.78,1,1,0,0,1,.89-.18.66.66,0,0,1,.32.9c-.17.46-.62.72-1,1-1.41,1.24-2.64,2.7-3.94,4s-2.79,3.18-4.57,4.14a.08.08,0,0,0,.08.14A18.71,18.71,0,0,0,59,41.74c1.44-1.48,2.79-3.09,4.33-4.46.45-.4,1.18-.84,1.15-1.53a.76.76,0,0,0-.88-.78c-1.08.16-2.13,1.39-2.88,2.08-1.65,1.54-3.18,3.2-4.9,4.65a5.71,5.71,0,0,1-1.26,1c-.2.08-.1.13-.17,0s.06-.49.09-.64a22.92,22.92,0,0,1,.94-3.23c.41-1.17.87-2.32,1.27-3.5.17-.5.66-1.34.29-1.85A1.49,1.49,0,0,0,55.17,33a4.76,4.76,0,0,0-1.25,2.05,33.13,33.13,0,0,0-1.41,4,20.87,20.87,0,0,0-.84,3.76,2.61,2.61,0,0,0,.65,2.2,2,2,0,0,0,2.5.36A.08.08,0,0,0,54.74,45.3Z"/><path class="cls-4" d="M56.1,31.46a.78.78,0,0,1-.53-.29,1.76,1.76,0,0,1-.31-.61.69.69,0,0,1,.1-.54,2.79,2.79,0,0,1,1.54-.9c.41-.14.82-.24,1.23-.36.25-.07.81-.29,1-.09a1.26,1.26,0,0,1,.2.46s0,0,0,0,0,0,0,0a.65.65,0,0,1,0,.34c0,.15-.25.3-.37.39s-.37.22-.56.33l-1,.56c-.23.12-.47.24-.69.37a1.68,1.68,0,0,1-.71.28c-.11,0-.11.17,0,.16a1.28,1.28,0,0,0,.6-.19l.75-.41,1.2-.67a3.56,3.56,0,0,0,.58-.37.93.93,0,0,0,.35-.41,1,1,0,0,0-.06-.5c-.05-.09,0,0-.06-.12a1,1,0,0,0-.13-.29c-.2-.31-.53-.23-.85-.16-.5.11-1,.26-1.49.42a3.06,3.06,0,0,0-1.78,1,.85.85,0,0,0-.06.79,1.21,1.21,0,0,0,1,.87C56.2,31.63,56.2,31.47,56.1,31.46Z"/><path class="cls-4" d="M61.22,43.06c-1.85-.88-.86-3.34-.28-4.8a29.48,29.48,0,0,1,2.71-5c2.11-3.28,4.78-6.74,8.15-8.8,1.11-.68,2.86-1.55,4-.38a2.94,2.94,0,0,1,.54.92,3,3,0,0,1,.17.89c0,.5-.09,1.52-1.21.82-.33-.21-.31-.8-.7-1-.77-.4-1.84.61-2.37,1a29.08,29.08,0,0,0-3.73,3.63,39.45,39.45,0,0,0-3.69,5.2c-.48.8-1,1.6-1.4,2.43-.15.3-.58.9-.48,1.29a.08.08,0,0,0,.12,0,7.25,7.25,0,0,0,1.25-1.45c.62-.77,1.23-1.56,1.84-2.35,1.41-1.83,2.8-3.69,4.22-5.52.51-.66,1.25-1.74,2.22-1.62,1.67.22.7,2.68.49,3.61-.26,1.15-.52,2.3-.77,3.46a4.28,4.28,0,0,0-.25,1.8.08.08,0,0,0,.1.06,7.32,7.32,0,0,0,2.16-1.54c1.14-.91,2.26-1.84,3.41-2.75.42-.34,3.17-2.89,3.61-1.64.22.6-2,2.33-2.45,2.7A40.19,40.19,0,0,1,73,38.81c-.8.48-1.77.85-2.52.06A2.48,2.48,0,0,1,70,36.93a17.58,17.58,0,0,1,.32-2.39,2.7,2.7,0,0,0,.12-1,.09.09,0,0,0-.06-.06c-.4-.08-.87.77-1.07,1-1,1.22-1.87,2.47-2.82,3.7-.7.89-1.4,1.77-2.12,2.63s-1.9,2.55-3.19,2.26c-.11,0-.15.14-.05.16,1.58.34,2.94-1.8,3.81-2.85,1.5-1.83,2.9-3.73,4.34-5.6.19-.25.71-1.17,1-.77.15.22-.26,1.44-.3,1.77a5.68,5.68,0,0,0,0,2.56c.57,1.6,2.12,1.25,3.26.54a38.93,38.93,0,0,0,4.92-4c.8-.69,1.61-1.39,2.36-2.15.37-.37,1.11-1,.92-1.64-.38-1.2-2.39.64-2.8,1-.9.7-1.8,1.41-2.68,2.13a28.51,28.51,0,0,1-3.43,2.68c-.48.28-.4.2-.29-.47s.21-1,.32-1.56c.31-1.44.68-2.86.94-4.3.1-.58.36-1.4,0-1.93A1.31,1.31,0,0,0,72,28.3a3.57,3.57,0,0,0-1.61,1.37c-.68.87-1.35,1.75-2,2.62-1.65,2.16-3.24,4.39-5,6.44-.52.61-.19.1,0-.35s.5-1,.77-1.41q1.13-2,2.41-3.86a29.1,29.1,0,0,1,5.48-6,7.15,7.15,0,0,1,1.58-1.14c.85-.36.91,0,1.37.6.29.36.71.81,1.22.54,1.13-.59.21-2.76-.51-3.35-1.36-1.1-3.34.12-4.51.92a26.32,26.32,0,0,0-6,6.11,32.15,32.15,0,0,0-4.43,7.6c-.59,1.54-1.53,3.92.4,4.84C61.23,43.25,61.31,43.11,61.22,43.06Z"/><path class="cls-4" d="M96,4.9c-3.22,12.22-5.69,24.56-8.33,36.9C87.06,44.37,86.51,47,86,49.53c-.32,1.57-.63,3.14-.92,4.72-.14.72-.26,1.44-.41,2.16a8.64,8.64,0,0,1-.4,2.06c-.14.25-.19,3.15-1.51.22a2.26,2.26,0,0,1,0-.68c.06-.75.17-1.48.29-2.22.23-1.4.46-2.79.7-4.19.5-2.93,1-5.85,1.56-8.78.68-3.72,1.32-7.46,2.06-11.17.51-2.57,1.23-5.16,1.55-7.75a.09.09,0,0,0-.11-.08c-.29.11-.45.72-.54.95a13.06,13.06,0,0,1-.82,2.4c-1.21,1.9-2.13,3.95-3.27,5.89-.65,1.1-1.32,2.18-2.06,3.23-.88,1.26-2,3.05-3.84,2.27-2.29-1,.36-7,1-8.39,1-2.24,2.41-5.13,4.83-6.1.7-.28,1.74-.05,2.33-.39.35-.2.57-1,.73-1.29A122.74,122.74,0,0,0,92,9.4c.51-1.55,1-3.09,1.61-4.61.4-1.06.73-3.48,2.39-2.9,1.12.4.14,2.14-.08,3a.08.08,0,0,0,.16,0l.68-2.68a.08.08,0,0,0,0-.09c-1.08-.71-1.73-1.06-2.36.28a78.07,78.07,0,0,0-3,8.49c-.91,2.66-1.86,5.32-2.87,7.94a39.45,39.45,0,0,1-1.67,4c-.51,1-1.78.67-2.73,1.06-2.15.86-3.47,3.27-4.45,5.23a19.4,19.4,0,0,0-2.28,7.63c0,1.29,1,2.83,2.49,2.2,1.8-.75,3.17-3.6,4.1-5.13.75-1.25,1.48-2.52,2.13-3.82.3-.61.58-1.22.92-1.8s.88-1,1.09-1.47a7.84,7.84,0,0,0,.16-1.29c0-.24.54-1.91.46-1.05a40.82,40.82,0,0,1-.87,4.35c-1.28,6.17-2.37,12.38-3.46,18.59q-.75,4.18-1.43,8.4c-.14.81-1.12,4.25.45,4.19.55,0,.78-.55.93-1a29.91,29.91,0,0,0,.78-3.9c.55-3,1.17-6.07,1.81-9.1,2.91-13.72,5.63-27.44,9.21-41C96.13,4.85,96,4.8,96,4.9Z"/><path class="cls-4" d="M84.81,28c.09-.19,1.08-1.84.64-2s-.88.45-1.11.67A8.81,8.81,0,0,0,83,28.38a23.39,23.39,0,0,0-2.79,6.76.08.08,0,0,0,.13.08,19.22,19.22,0,0,0,2-2.74c.87-1.46,1.71-3,2.47-4.49,0-.1-.1-.18-.14-.09-.73,1.48-1.55,2.93-2.39,4.35a18.07,18.07,0,0,1-2,2.85l.13.08a25.94,25.94,0,0,1,2.08-5.46,10.49,10.49,0,0,1,2.12-3c.14-.13.59-.6.79-.53s.05,0,.05.07,0,.13-.05.18a13.2,13.2,0,0,1-.68,1.48C84.62,28,84.76,28.08,84.81,28Z"/><path class="cls-4" d="M97.9,31.36c-.81,1.51-1.94,3.42-3.53,4.21-1.29.63-2.39-.32-2.7-1.54a7,7,0,0,1,.24-3.42,27,27,0,0,1,1.89-4.83c.6-1.26,1.31-3.11,2.57-3.88a2.24,2.24,0,0,1,1.72-.18,1.84,1.84,0,0,1,1.11.9,3.31,3.31,0,0,0,.86,1c.43.22,1.16-.14,1.59-.24.88-.2,1.76-.39,2.63-.62.66-.17,1.25-.48,1.9-.69a1.88,1.88,0,0,1,.65-.16.73.73,0,0,1,.58.91,1.89,1.89,0,0,1-.79.69,14.68,14.68,0,0,1-6.49,1.94.1.1,0,0,0-.08.06,32.81,32.81,0,0,1-2.15,5.85.08.08,0,0,0,.14.08,21.15,21.15,0,0,0,1-2.34c.19-.52.37-1,.54-1.57s.3-1.71.8-1.94a9.44,9.44,0,0,1,1.62-.22,15.94,15.94,0,0,0,2.13-.57,10.74,10.74,0,0,0,2.92-1.39,1,1,0,0,0,.55-.88.81.81,0,0,0-1-.74c-.84.14-1.61.62-2.44.84-.57.15-1.14.27-1.7.41s-1.26.3-1.89.43-1-.55-1.29-1-.34-.64-.76-.78a3.16,3.16,0,0,0-1.43-.18,2.48,2.48,0,0,0-1.61,1.05,22.57,22.57,0,0,0-3.06,6,11.46,11.46,0,0,0-1,4.89c.1,1.09.72,2.4,2,2.51a3.34,3.34,0,0,0,2.46-1.34A14,14,0,0,0,98,31.44.08.08,0,0,0,97.9,31.36Z"/><path class="cls-4" d="M97.17,27c.09-.38.28-1,.06-1.37-.12-.21-.29-.19-.47-.05a4,4,0,0,0-.88,1.33,19.11,19.11,0,0,0-.82,1.78c-.27.69-.53,1.39-.74,2.1q-.13.46-.24.93a1.7,1.7,0,0,0-.09.74c.17.83,1.32-1,1.43-1.2A15.08,15.08,0,0,0,97.17,27c0-.1-.13-.15-.15,0a14.83,14.83,0,0,1-1.11,3c-.23.46-.47.91-.73,1.35a5.12,5.12,0,0,1-.77,1c-.1.09-.2.19-.27,0a.87.87,0,0,1,0-.39c0-.23.1-.45.16-.68.14-.53.31-1.06.5-1.58a24.13,24.13,0,0,1,1.33-3c.13-.22.26-.45.41-.66s.23-.36.37-.39c.39-.08.1,1.17.07,1.31S97.15,27.09,97.17,27Z"/><path class="cls-1" d="M49.57.56c.25,1.17-3.64,1.83-4.21,2-2.26.68-4.51,1.37-6.77,2.07-2.48.76-5,1.53-7.45,2.31l-2.86.9a7,7,0,0,0-1.9.58c-.3.23-.28.4-.39.83l-.84,3.47-1.77,7.21q-.79,3.28-1.57,6.56a43.7,43.7,0,0,0-1.23,5.36.08.08,0,0,0,.11.08c3-.92,5.84-2.35,8.7-3.51,1.46-.6,2.91-1.18,4.38-1.74.35-.14,1.22-.6,1.62-.47,2.42.81-.37,1.77-.62,1.91s-.59.26-.87.38c-3.66,1.6-7.31,3.25-11,4.75a8.39,8.39,0,0,0-2.69,1.2c-.84.86-1,2.61-1.27,3.71-1.85,7.49-3.42,15.06-5,22.6q-1.14,5.28-2.32,10.56c-.34,1.51-.68,3-1.08,4.5A8.66,8.66,0,0,1,10,77.65c-.34.61-1,1.13-1.44.1a3.24,3.24,0,0,1,.05-1.45c.58-3.84,1.59-7.61,2.11-11.47a61.72,61.72,0,0,0,.66-10.69A13.4,13.4,0,0,0,8.46,46c-1-1.32-3.3-3.23-2.73-5.2C6.09,39.6,7.36,38.67,8.35,38a43.37,43.37,0,0,1,8.34-4.25c1.1-.46,1.58-.38,1.85-1.45l2.61-10.43c.71-2.85,1.39-5.71,2.07-8.57.21-.9.43-1.79.65-2.68.05-.24.36-.95.27-1.19s-.13-.12-.45-.18a6.33,6.33,0,0,0-2.32.63q-1.28.4-2.55.84Q15.56,11.8,12.35,13c-1.83.71-3.67,1.43-5.47,2.22C6,15.65,4,16.17,3.35,17a.06.06,0,0,0,0,.08c.13.25.52.23.76.27,1.22.19,2.47.19,3.7.31A13.91,13.91,0,0,1,9.73,18c.24.07.8.17.89.32s-.55,1.52-.52,1.51a7.77,7.77,0,0,1-1-.32c-2.32-.42-4.72-.16-7-.52-.92-.15-1.88-.61-1.56-1.77A1.47,1.47,0,0,1,1,16.32a8.61,8.61,0,0,1,1.7-1.18C7.14,12.55,12.2,10.9,17,9.2c4.64-1.63,9.37-3,14.1-4.31,2.66-.75,5.33-1.49,8-2.22l4.81-1.34C45.08,1,48.59-.47,49.59.59c.07.08.19,0,.12-.11a1.93,1.93,0,0,0-1.9-.33c-1.9.36-3.77,1-5.62,1.49l-9.3,2.58c-5.72,1.6-11.42,3.2-17,5.21-3.13,1.13-6.26,2.28-9.31,3.62A25.22,25.22,0,0,0,1.28,15.9c-.78.62-1.67,1.76-.73,2.7a3.72,3.72,0,0,0,2.22.6c1.75.16,3.51.12,5.25.31a6.19,6.19,0,0,1,1.55.24c.24.08.49.37.7.43a.87.87,0,0,0,1-.29c1.32-1.57-1.9-2.18-2.74-2.29s-1.5-.16-2.25-.22c-.43,0-2,.11-2.33-.21s.48-.61.92-.81c.78-.37,1.56-.72,2.35-1.06,3.52-1.52,7.12-2.87,10.73-4.13,1.46-.51,2.93-1,4.42-1.45.27-.07,1.47-.52,1.65-.28s-.26,1.12-.3,1.28c-.8,3.31-1.59,6.62-2.4,9.93-.73,3-1.49,6-2.24,9-.2.78-.36,2.7-.81,3.26-.32.4-1.66.7-2.12.89-1.28.54-2.54,1.11-3.78,1.72a19.28,19.28,0,0,0-5.88,3.86c-1.54,1.73-.84,3.36.46,5a28.67,28.67,0,0,1,3,4.1,12.71,12.71,0,0,1,1.23,5.25,56.84,56.84,0,0,1-.51,10c-.49,4.1-1.47,8.08-2.17,12.14-.12.67-.47,3.15,1,2.7.59-.17.79-1.55.91-2,.39-1.41.73-2.82,1.06-4.25.75-3.28,1.48-6.58,2.18-9.87,1.55-7.2,3.08-14.41,4.75-21.58.34-1.42.66-2.84,1-4.24.22-.79.4-1.81,1.12-2.29a14.7,14.7,0,0,1,2.59-1.07c3.21-1.3,6.37-2.7,9.54-4.11.68-.31,4.54-1.27,3.7-2.68-.38-.64-1.25-.47-1.84-.31a38.25,38.25,0,0,0-4.08,1.59c-3,1.22-6.06,2.52-9.12,3.71a2,2,0,0,1-.51.19c-.38-.19.08.31-.07-.11-.09-.25.2-.91.25-1.16.35-1.53.72-3,1.08-4.56Q23.53,20,25,14.23l1.2-4.92c.08-.33.13-.61.27-.72a7.76,7.76,0,0,1,2.19-.67C34.81,6,41,4,47.23,2.17,48,1.93,50,1.77,49.73.51,49.71.41,49.55.45,49.57.56Z"/><path class="cls-1" d="M16.79,39.71c.11-.51,1.12-3.9.3-4-.21,0-.61.21-.8.28-.59.25-1.18.53-1.76.81-1.34.66-2.66,1.34-3.95,2.07-1,.53-3.47,1.68-3,3.09a7.64,7.64,0,0,0,1.66,2.22,18.94,18.94,0,0,1,2.49,3.6,18.61,18.61,0,0,1,1.6,6.91c0,.08.14.11.16,0q1.61-7.48,3.3-15a.08.08,0,0,0-.15,0c-.76,3.32-1.48,6.65-2.2,10-.27,1.26-.55,2.53-.84,3.79a3.72,3.72,0,0,0-.21.92c0,.1,0,.43.09.18a2.45,2.45,0,0,0-.07-.71,16.22,16.22,0,0,0-2.47-7.72c-.92-1.37-2.27-2.51-3.07-4S9.52,39.6,10.52,39A60.8,60.8,0,0,1,16,36.24c.11-.05.79-.44,1-.38.41.12.13,1.15.1,1.33-.14.83-.31,1.66-.48,2.48C16.62,39.77,16.77,39.82,16.79,39.71Z"/><path class="cls-1" d="M29.3,50.77c-3.16.11-1.74-4.57-1.16-6.24a19.67,19.67,0,0,1,3.91-6.82c.68-.73,1.7-1.74,2.77-1.45,1.59.42,1.24,2.23.8,3.38a16.11,16.11,0,0,1-1.94,3.49A10.48,10.48,0,0,1,31.07,46c-.58.39-1.19.21-1.45.9-.13.34-.51,1.56-.07,1.82.19.11.47-.05.63-.13A10.73,10.73,0,0,0,32,47.37C33.71,46,35.34,44.52,37,43.08a22.4,22.4,0,0,1,2.38-1.86,2.32,2.32,0,0,1,.38-.21c.32-.14.32-.17.59.08s.2.14.17.32-.25.38-.34.49a46.5,46.5,0,0,1-4.69,4.51c-1,.88-2,1.73-3,2.6a5.68,5.68,0,0,1-3.26,1.76c-.1,0-.1.17,0,.16a4.56,4.56,0,0,0,2.47-1c1-.8,1.94-1.65,2.89-2.49a65.23,65.23,0,0,0,5.41-5.1c.2-.22.63-.6.67-.93a.59.59,0,0,0-.68-.63c-.8.1-1.66,1-2.26,1.5-1,.76-1.89,1.59-2.82,2.39-1.09.95-2.19,1.9-3.34,2.78-.34.26-.69.52-1.06.75-.17.11-.55.42-.77.41-.55,0-.15-1.63.18-1.89s.74-.28,1.08-.5a9.86,9.86,0,0,0,2.54-2.65,18,18,0,0,0,2.07-3.62,4,4,0,0,0,.38-2.7A1.72,1.72,0,0,0,34,36.06a5.24,5.24,0,0,0-2.07,1.53,19.78,19.78,0,0,0-4.34,8.14c-.47,1.74-1.1,5.3,1.7,5.2C29.41,50.93,29.41,50.76,29.3,50.77Z"/><path class="cls-1" d="M32.26,40.71c-.21.31-.41.62-.59.95a6.4,6.4,0,0,0-.39.84c0,.1-.13.33,0,.41s.27-.09.35-.17a8.34,8.34,0,0,0,1.13-1.57,11,11,0,0,0,.77-1.38l.41-.9c0-.08-.06-.17-.12-.1a13,13,0,0,0-1.55,1.92c0,.08.09.17.14.08a13.24,13.24,0,0,1,1.52-1.89l-.12-.09c-.24.5-.45,1-.72,1.51s-.63,1-1,1.55a6.57,6.57,0,0,1-.51.67,2.39,2.39,0,0,0-.23.22s0,0,0,0a.7.7,0,0,0,0-.14,5.69,5.69,0,0,1,.4-.87c.18-.33.38-.64.59-1C32.46,40.7,32.32,40.62,32.26,40.71Z"/><path class="cls-1" d="M44.27,33.18A17.74,17.74,0,0,1,43.52,36c-.05.2-.41,1-.22,1.13a.08.08,0,0,0,.11,0C44.72,36,45.21,33.55,47,33c.85-.27,1.69.28,2.55.09a3.8,3.8,0,0,0,1.52-.87,13,13,0,0,1,1.44-1.13c.33-.19.49-.29.86-.17.65.22.47.88.15,1.35A9.1,9.1,0,0,1,51,34.42a3.59,3.59,0,0,1-2.73.72c-.74-.17-.85-.23-1.39.39A34.8,34.8,0,0,0,44,39.74c-1.13,1.8-2.22,3.64-3.19,5.54-.33.62-.63,1.26-.92,1.9s-.73,2.18-1.47,2.45c-.46.16-1.18-.46-1.21-.9a4.59,4.59,0,0,1,.33-1.19c.27-.92.59-1.83.9-2.74.75-2.19,1.46-4.4,2.19-6.6.35-1.05.68-2.11,1-3.15.15-.44.3-.88.47-1.31a5.79,5.79,0,0,1,.29-.68c.44-.8,1.82-1.14,1.85.12a.08.08,0,0,0,.16,0c0-.64-.4-1.26-1.12-1.16s-1,.93-1.28,1.55c-1,2.6-1.83,5.33-2.7,8-.41,1.28-.84,2.56-1.28,3.84-.21.6-.41,1.2-.6,1.81A4.86,4.86,0,0,0,37,48.84a1.61,1.61,0,0,0,1.15,1c.45,0,.81-.52,1-.85a34.15,34.15,0,0,0,1.58-3.28c.63-1.26,1.33-2.49,2-3.71s1.52-2.53,2.35-3.75c.37-.56.75-1.11,1.15-1.65s.86-1.41,1.77-1.37a6.26,6.26,0,0,0,1.07.12,3.92,3.92,0,0,0,1.33-.43,9.81,9.81,0,0,0,3-2.37c.9-1.09.32-2.44-1.06-1.61s-2.21,2.27-4.07,1.93a2.5,2.5,0,0,0-2.63.84,16.34,16.34,0,0,0-1.27,1.73c-.24.35-1.09,1.3-1,1.55a2.61,2.61,0,0,1,.24-.93c.11-.4.23-.8.34-1.2a9.91,9.91,0,0,0,.41-1.69C44.44,33.07,44.28,33.07,44.27,33.18Z"/><path class="cls-1" d="M54.88,45.12a2,2,0,0,1-2.77-1,3.88,3.88,0,0,1,0-2.11,31.92,31.92,0,0,1,1.57-5.58,16.31,16.31,0,0,1,1.15-2.6,2.63,2.63,0,0,1,.56-.76c.46-.33,1.62-.05,1.71.59a2.58,2.58,0,0,1-.25,1c-.12.38-.26.77-.39,1.15-.32.89-.67,1.76-1,2.65a27.53,27.53,0,0,0-.88,2.8,3.62,3.62,0,0,0-.21,1.56s0,0,.06,0c.38.07,1-.66,1.28-.88.86-.71,1.67-1.46,2.47-2.24,1.28-1.27,2.56-2.55,3.93-3.72a6.65,6.65,0,0,1,1-.78A1.1,1.1,0,0,1,64,35a.66.66,0,0,1,.32.9c-.17.46-.61.72-1,1-1.41,1.24-2.63,2.7-3.93,4s-2.8,3.18-4.58,4.14a.08.08,0,0,0,.08.14,18.54,18.54,0,0,0,4.16-3.7c1.43-1.48,2.78-3.09,4.33-4.46.45-.4,1.17-.83,1.14-1.53a.75.75,0,0,0-.87-.78c-1.08.16-2.14,1.4-2.88,2.09-1.66,1.53-3.19,3.19-4.91,4.65a5.72,5.72,0,0,1-1.26,1c-.2.08-.09.14-.17,0s.06-.5.09-.65a22.41,22.41,0,0,1,.94-3.22c.41-1.18.88-2.33,1.28-3.51.17-.5.65-1.34.28-1.85a1.49,1.49,0,0,0-1.77-.42,4.65,4.65,0,0,0-1.25,2.06,30.41,30.41,0,0,0-1.41,4,19.46,19.46,0,0,0-.84,3.76,2.55,2.55,0,0,0,.64,2.2,2,2,0,0,0,2.5.36C55.06,45.22,55,45.08,54.88,45.12Z"/><path class="cls-1" d="M56.24,31.28a.77.77,0,0,1-.52-.28,1.79,1.79,0,0,1-.32-.61.71.71,0,0,1,.11-.55,2.82,2.82,0,0,1,1.53-.9c.41-.14.83-.24,1.24-.36.24-.07.8-.29,1-.09a1.59,1.59,0,0,1,.21.46s0,0,0,0v0a.67.67,0,0,1,0,.34c0,.16-.25.31-.38.39s-.37.22-.55.33c-.34.19-.66.38-1,.56s-.47.24-.69.37a1.56,1.56,0,0,1-.71.28c-.1,0-.1.17,0,.16a1.36,1.36,0,0,0,.61-.19l.74-.41,1.2-.67a3.77,3.77,0,0,0,.58-.36.84.84,0,0,0,.35-.42,1,1,0,0,0-.06-.5c0-.09,0,0-.06-.11a.81.81,0,0,0-.13-.3c-.2-.31-.53-.23-.84-.16-.5.11-1,.27-1.5.42a3.08,3.08,0,0,0-1.78,1.05.86.86,0,0,0-.06.78,1.21,1.21,0,0,0,1,.87C56.34,31.45,56.34,31.29,56.24,31.28Z"/><path class="cls-1" d="M61.36,42.88c-1.85-.88-.86-3.34-.28-4.79A29.9,29.9,0,0,1,63.79,33c2.11-3.28,4.78-6.74,8.15-8.8,1.11-.68,2.86-1.54,4-.37a2.71,2.71,0,0,1,.54.91,3.06,3.06,0,0,1,.18.9c0,.49-.09,1.51-1.21.81-.34-.21-.32-.8-.7-1-.78-.4-1.85.61-2.37,1a27.83,27.83,0,0,0-3.74,3.62,40.4,40.4,0,0,0-3.69,5.2c-.48.8-1,1.6-1.39,2.43-.16.3-.59.91-.48,1.29a.07.07,0,0,0,.11,0,7.15,7.15,0,0,0,1.25-1.44c.62-.78,1.23-1.57,1.84-2.36,1.42-1.83,2.8-3.69,4.22-5.52.52-.66,1.26-1.74,2.22-1.61,1.67.21.7,2.68.49,3.6-.25,1.15-.52,2.3-.77,3.46a4.44,4.44,0,0,0-.25,1.8.08.08,0,0,0,.1.06,7.32,7.32,0,0,0,2.16-1.54l3.41-2.75c.42-.33,3.17-2.89,3.62-1.64.21.6-2,2.33-2.45,2.7a40.82,40.82,0,0,1-5.84,4.75c-.8.48-1.77.85-2.52.06a2.48,2.48,0,0,1-.47-1.94,17.58,17.58,0,0,1,.32-2.39,2.66,2.66,0,0,0,.12-1s0-.05-.06-.05c-.4-.09-.87.76-1.07,1-1,1.22-1.87,2.47-2.82,3.69-.69.89-1.39,1.77-2.12,2.63s-1.9,2.55-3.19,2.27c-.1,0-.15.13,0,.15,1.58.35,2.94-1.8,3.8-2.85,1.5-1.82,2.9-3.73,4.34-5.6.19-.24.71-1.17,1-.76.14.21-.26,1.43-.31,1.76a5.72,5.72,0,0,0,0,2.57c.56,1.59,2.11,1.24,3.26.54a39.91,39.91,0,0,0,4.91-4c.8-.7,1.62-1.4,2.36-2.15.37-.38,1.12-1,.92-1.65-.38-1.19-2.38.64-2.8,1-.9.7-1.79,1.41-2.68,2.13a29.22,29.22,0,0,1-3.42,2.68c-.49.28-.41.2-.3-.47s.21-1,.32-1.56c.31-1.43.69-2.86.94-4.3.11-.58.36-1.4,0-1.92a1.31,1.31,0,0,0-1.48-.31,3.57,3.57,0,0,0-1.61,1.37c-.68.87-1.35,1.75-2,2.63-1.65,2.15-3.24,4.38-5,6.44-.53.6-.2.09,0-.36s.5-1,.77-1.41c.76-1.31,1.56-2.61,2.42-3.86a29.31,29.31,0,0,1,5.47-6,7.34,7.34,0,0,1,1.58-1.13c.85-.37.92,0,1.37.59.3.36.71.81,1.22.54,1.14-.59.22-2.76-.5-3.34-1.36-1.11-3.34.11-4.52.91a26.73,26.73,0,0,0-6,6.11,32.15,32.15,0,0,0-4.43,7.6c-.59,1.54-1.53,3.92.41,4.84A.08.08,0,0,0,61.36,42.88Z"/><path class="cls-1" d="M96.09,4.73c-3.22,12.21-5.69,24.55-8.33,36.89-.55,2.58-1.1,5.15-1.63,7.73-.31,1.57-.63,3.15-.92,4.72-.13.72-.26,1.44-.4,2.16a8.1,8.1,0,0,1-.41,2.06c-.14.26-.19,3.15-1.51.22a2.28,2.28,0,0,1,0-.68c.06-.74.17-1.48.29-2.22.23-1.39.46-2.79.7-4.18.5-2.93,1-5.86,1.57-8.78.67-3.73,1.32-7.46,2.05-11.18.51-2.57,1.23-5.15,1.55-7.75a.08.08,0,0,0-.1-.08c-.3.11-.45.72-.54.95a13.09,13.09,0,0,1-.83,2.4c-1.2,1.9-2.13,4-3.27,5.89-.65,1.1-1.32,2.19-2,3.23-.88,1.26-2,3-3.85,2.27-2.28-1,.36-6.94,1-8.39,1-2.24,2.41-5.13,4.82-6.09.7-.28,1.75-.06,2.33-.4.35-.2.58-1,.73-1.29a121.93,121.93,0,0,0,4.83-13c.51-1.54,1-3.08,1.61-4.6.41-1.07.73-3.49,2.39-2.9,1.12.39.15,2.13-.08,3a.08.08,0,0,0,.16,0l.68-2.68a.08.08,0,0,0,0-.09c-1.08-.71-1.73-1-2.37.29a81.52,81.52,0,0,0-3,8.48c-.91,2.67-1.85,5.32-2.87,7.94a39.45,39.45,0,0,1-1.67,4c-.51,1-1.78.68-2.73,1.06-2.15.86-3.47,3.27-4.44,5.23a19.25,19.25,0,0,0-2.29,7.63c0,1.29,1,2.83,2.49,2.2,1.8-.74,3.17-3.59,4.1-5.12.76-1.25,1.48-2.53,2.13-3.83.31-.6.58-1.21.92-1.8a15.45,15.45,0,0,0,1.09-1.47,7.84,7.84,0,0,0,.16-1.29c0-.23.54-1.91.46-1.05A37.62,37.62,0,0,1,88,28.58C86.68,34.75,85.6,41,84.5,47.17q-.73,4.2-1.43,8.4c-.13.81-1.12,4.25.46,4.19.55,0,.78-.55.92-1a28.34,28.34,0,0,0,.78-3.9c.56-3,1.18-6.07,1.82-9.1,2.9-13.72,5.62-27.44,9.2-41A.08.08,0,0,0,96.09,4.73Z"/><path class="cls-1" d="M85,27.81c.09-.19,1.08-1.84.64-2s-.88.45-1.11.67a9.4,9.4,0,0,0-1.33,1.7A23.14,23.14,0,0,0,80.35,35c0,.08.08.14.13.08a18.48,18.48,0,0,0,2-2.74c.88-1.46,1.71-3,2.47-4.49,0-.1-.09-.18-.14-.08-.73,1.47-1.55,2.92-2.38,4.35a18.61,18.61,0,0,1-2.06,2.85l.13.08a25.51,25.51,0,0,1,2.09-5.47,10.4,10.4,0,0,1,2.11-3c.14-.13.59-.6.79-.53s.05,0,.06.07a.55.55,0,0,1-.06.18,14.23,14.23,0,0,1-.68,1.49C84.77,27.82,84.91,27.9,85,27.81Z"/><path class="cls-1" d="M98,31.18c-.8,1.51-1.93,3.43-3.53,4.21-1.29.64-2.39-.31-2.69-1.54a7.1,7.1,0,0,1,.23-3.42,27,27,0,0,1,1.89-4.83c.61-1.26,1.31-3.11,2.58-3.87a2.22,2.22,0,0,1,1.71-.19,1.84,1.84,0,0,1,1.11.9,3.31,3.31,0,0,0,.86,1c.43.22,1.17-.13,1.6-.23.87-.21,1.75-.4,2.62-.63.66-.17,1.25-.47,1.9-.69a1.67,1.67,0,0,1,.65-.15.72.72,0,0,1,.59.9,2,2,0,0,1-.79.69,14.73,14.73,0,0,1-6.5,2,.07.07,0,0,0-.07.06A33.54,33.54,0,0,1,98,31.18c0,.1.1.18.14.08a20,20,0,0,0,1-2.33c.19-.53.37-1.05.55-1.58s.29-1.7.8-1.93a8.33,8.33,0,0,1,1.61-.23,15.55,15.55,0,0,0,2.13-.57,10.74,10.74,0,0,0,2.92-1.39,1,1,0,0,0,.56-.88.82.82,0,0,0-1-.74c-.85.14-1.61.63-2.45.84-.56.15-1.13.28-1.7.41s-1.25.31-1.89.43-1-.55-1.29-1-.33-.64-.75-.78a3.2,3.2,0,0,0-1.44-.18,2.5,2.5,0,0,0-1.6,1.05,22.43,22.43,0,0,0-3.06,6,11.34,11.34,0,0,0-1,4.89c.09,1.09.71,2.4,1.94,2.51A3.3,3.3,0,0,0,96,34.43a14,14,0,0,0,2.22-3.17A.08.08,0,0,0,98,31.18Z"/><path class="cls-1" d="M97.32,26.81c.08-.38.27-1,.06-1.36-.13-.22-.3-.2-.48-.06A4,4,0,0,0,96,26.72a19,19,0,0,0-.81,1.78c-.28.69-.54,1.39-.75,2.1q-.13.46-.24.93a1.7,1.7,0,0,0-.09.74c.17.83,1.32-1,1.43-1.2a15.28,15.28,0,0,0,1.76-4.26c0-.1-.14-.15-.16,0a14.67,14.67,0,0,1-1.11,3.05,14.52,14.52,0,0,1-.73,1.34,4.58,4.58,0,0,1-.76,1c-.1.09-.21.2-.28,0a.81.81,0,0,1,0-.38c.05-.23.1-.46.16-.69A14.37,14.37,0,0,1,95,29.55a22.88,22.88,0,0,1,1.33-3.05,6.44,6.44,0,0,1,.4-.66c.08-.1.23-.36.37-.39.39-.08.1,1.18.07,1.32A.08.08,0,0,0,97.32,26.81Z"/></g></g></svg>