<svg xmlns="http://www.w3.org/2000/svg" viewBox="0 0 354.03 168.16"><defs><style>.cls-1{fill:#0051b9;}.cls-2{fill:#ff1d25;}.cls-3{fill:#ebe7d8;}</style></defs><g id="Capa_2" data-name="Capa 2"><g id="Capa_1-2" data-name="Capa 1"><path d="M.65,45.94s5,54.74,4.81,60.47l8.45,1.76s3.87,10.19,5.29,10.25,76,15.8,76,15.8,11.39-1,14.33-3.77,7.69-15.5,14.83-16.66,14,4.84,17.88,15,12.1,17.69,28.95,22.63,77.4,17.29,80.29,16,7.31-5.47,8.78-6.84,7.08.26,11.33.42,23.55-22.07,23.55-22.07,17.49-49.58,19-52.39,22.07-20.7,23.54-22.08,4.42-4.14,4.09,4.46-2.12,18.58,2.07,20.18,8.67-4,9.38-22.62-3-33.13-8.68-33.34S336,35.68,319.86,49.42,275.6,93.68,275.6,93.68,67,55.63,68.41,55.68,77.29,46,77.29,46l40.39-17.13s2.94-2.76,4,5.9,2.24,15.87,7.86,17.52,13.08-8.12,13.4-16.72S141,12.5,132.78,5,115.93.07,92.87,9.24L.65,45.94"/><path d="M0,45.94C1.55,62.8,3.09,79.66,4.29,96.55a95.63,95.63,0,0,1,.52,9.86.66.66,0,0,0,.48.63c2.7.56,5.59,1.54,8.35,1.73-.42,0-.37-.72-.12.19a20.91,20.91,0,0,0,.91,2.26,57.47,57.47,0,0,0,2.44,5.29c.86,1.59,1.53,2.4,3,2.67,1.66.3,3.31.65,5,1,14.44,2.93,28.86,6,43.28,9L88,133.35c2.48.52,5.41,1.66,8,1.44a41,41,0,0,0,11.4-2.35c3.45-1.36,4.84-4.46,6.67-7.48,2.34-3.88,5.35-9.35,10.15-10.47,6-1.38,11.23,3.39,14.21,8s4.12,9.68,7.26,14a34.82,34.82,0,0,0,10.42,9.32c7.64,4.59,16.37,6.8,25,8.89,17.61,4.26,35.4,7.94,53.23,11.13,5.26.94,10.84,2.33,16.21,2.35,2.94,0,5.68-3,7.74-4.81.77-.67,1.5-1.51,2.34-2.12,1.09-.8,2.52-.58,3.81-.45,2.39.25,5.32,1.22,7.71.83s4.68-2.79,6.4-4.32c3.07-2.73,6-5.69,8.78-8.67,2.37-2.51,4.7-5.07,7-7.65a8.38,8.38,0,0,0,1.72-2.32c2-4.87,3.53-10,5.29-14.93q4.17-11.72,8.4-23.4c1.1-3,2.2-6,3.34-9a28.25,28.25,0,0,1,1.79-4.46c1.35-2.26,3.85-4.15,5.73-5.93,3.19-3,6.45-5.95,9.72-8.87,2.41-2.16,4.85-4.3,7.26-6.46a14.65,14.65,0,0,1,1.84-1.6c2-1.25,1.87,2.27,1.88,3.52.05,5.85-1.41,11.86-.42,17.68.45,2.66,2.12,5.33,5.18,4.77,2.46-.44,3.94-2.92,4.85-5,2-4.55,2.54-9.73,2.9-14.63a101.46,101.46,0,0,0-.52-21c-.63-4.59-1.52-9.73-4.14-13.67-3.1-4.65-8.42-3.19-12.45-.59a102.35,102.35,0,0,0-10.33,8.14c-4.37,3.7-8.75,7.39-12.95,11.28-13.1,12.12-25.45,25.1-37.58,38.18-.09.1-.46.38-.47.52-.06.49-.95-.79.49,0-.09,0-.23,0-.32,0a7.23,7.23,0,0,0-2-.37L264.71,91l-32.83-6-45.21-8.26L138.61,68q-20.7-3.78-41.38-7.59c-8.36-1.54-16.73-3.07-25.09-4.64l-2.61-.5c-.2,0-1.08-.3-.8-.13l.3.73c-.06.23-1,.76-.07.34a4.25,4.25,0,0,0,.63-.41,14.91,14.91,0,0,0,2.21-2.14c1.62-1.76,3.13-3.63,4.61-5.5.42-.54.81-1.15,1.27-1.63s-.33.17.14-.07c.79-.41,1.66-.71,2.48-1.06l24.79-10.51,10.53-4.46c.8-.34,2.66-1.53,3.42-1.27s1.25,1.89,1.46,2.64a50.06,50.06,0,0,1,1,6.45c.49,3.33,1,6.79,2.54,9.83,2.39,4.83,7.35,6.42,11.72,3.06,10.78-8.3,8.84-25,4.35-36.07C138.05,9.86,134.73,4.8,129.76,2c-3.68-2.08-7.85-2.3-12-1.67-6.88,1.05-13.52,3.78-20,6.29-4.76,1.84-9.49,3.75-14.23,5.64L52.41,24.65,1.37,45l-.89.36c-.77.3-.43,1.56.34,1.25L42.14,30.12l32-12.71c10.06-4,20.07-8.2,30.25-11.9,5.42-2,11.24-4.15,17.09-4.24a15.7,15.7,0,0,1,11.66,5c4.91,4.95,7.29,12,8.46,18.77s1.43,13.69-2.1,19.78c-1.6,2.76-4.09,6-7.36,6.84s-5.78-1.76-7-4.42c-1.53-3.26-2-7-2.47-10.53-.34-2.52-.35-6-2.15-8a2.22,2.22,0,0,0-2.53-.72,8.54,8.54,0,0,0-1,.5c-2.47,1.13-5,2.13-7.5,3.18L84.23,42.34c-2.25.95-5,1.68-7,3A5,5,0,0,0,76,46.64c-1.43,1.81-2.88,3.62-4.41,5.34-.75.86-2.11,2.89-3.32,3.08a.64.64,0,0,0-.45.45.67.67,0,0,0,.29.74c.93.55,2.58.54,3.61.73,3.25.62,6.5,1.22,9.74,1.82L115.19,65l45.34,8.31L207.87,82l40.32,7.36,24.12,4.4c.91.17,2.78.9,3.69.46s2.14-2.29,2.93-3.14q3.76-4,7.59-8c14.73-15.47,29.84-30.59,46.59-43.89,3.35-2.66,10.42-8.41,14.34-3.59,3,3.7,3.86,9.37,4.48,13.94a100.37,100.37,0,0,1,.44,21.5c-.4,4.87-.94,10.44-3.41,14.78-1.07,1.88-3.56,4.26-5.68,2.15-1.67-1.66-1.48-5-1.46-7.15,0-3.19.35-6.38.54-9.56.1-1.68,1.17-9.44-2.48-8.9-1.58.23-3,2.09-4.17,3.1-2.68,2.38-5.36,4.75-8,7.14-3.16,2.84-6.31,5.69-9.37,8.64-1.6,1.53-3.65,3.15-4.74,5.12a36.27,36.27,0,0,0-1.84,4.63c-1.14,3-2.24,6-3.34,9q-4.17,11.49-8.26,23c-1.8,5-3.84,10.06-5.38,15.18a4.43,4.43,0,0,1-.17.47c-.14.29.26-.39.05-.1a21.29,21.29,0,0,1-1.47,1.68q-3.44,3.87-7,7.63c-2.86,3-5.78,6-8.9,8.76a30.48,30.48,0,0,1-3.7,2.9,4.87,4.87,0,0,1-3.74.69c-2.67-.28-5.65-1.18-8.35-.77-1.76.27-2.93,1.88-4.2,3-2.19,1.92-4.57,4.57-7.6,4.38-6-.37-12-1.69-17.91-2.77-9.07-1.66-18.12-3.49-27.14-5.4-8.44-1.79-16.87-3.64-25.24-5.71-9-2.22-18.19-4.76-25.77-10.32a30.69,30.69,0,0,1-9.32-10.83c-2.61-5.1-4.18-10.39-8.46-14.47-3.16-3-7.58-5.1-12-4.07-4.16,1-7,5-9.24,8.37-2,3-3.6,7.73-7,9.33s-7.93,2.22-11.81,2.57a8.47,8.47,0,0,1-2.08-.29L87.82,132q-22-4.62-44-9.21c-6.28-1.31-12.55-2.62-18.83-3.89-1.62-.33-3.23-.67-4.85-1-1.86-.33-2.44-2.46-3.25-4.22-.75-1.6-1.43-3.24-2.08-4.89-.26-.66-.32-1-1-1.32a25.33,25.33,0,0,0-4.61-1l-3.63-.75.47.62a80.83,80.83,0,0,0-.4-8.23c-.34-5-.73-9.9-1.14-14.85Q3.32,68.09,1.92,52.85c-.2-2.3-.41-4.61-.62-6.91-.08-.82-1.37-.83-1.3,0"/><path class="cls-1" d="M27.91,75.68l.6,21.56s-.32,8.6,9.49,11.84,49.22,11.91,52.06,12,8.5.33,8.94-11.14.7-18.64.7-18.64.44-11.46-8-14.66S39.63,66.08,39.63,66.08s-11.23-3.3-11.72,9.6"/><path d="M27.26,75.68q.28,9.93.56,19.84a19.7,19.7,0,0,0,.48,4.78,13.7,13.7,0,0,0,8.35,9,79.73,79.73,0,0,0,10.4,3c4.73,1.2,9.47,2.33,14.22,3.43,8.57,2,17.15,4,25.8,5.58a16.75,16.75,0,0,0,5.51.39c3.55-.51,5.56-3.33,6.4-6.64s.73-7,.86-10.43q.18-4.57.35-9.14a47.92,47.92,0,0,0,.08-6.11c-.33-3.91-1.57-8-4.46-10.84-2.4-2.34-5.66-3.11-8.81-3.91-8.67-2.18-17.5-3.79-26.29-5.42C54,67.93,47.19,66.8,40.44,65.57c-4.21-.77-8.76-.77-11.37,3.3a13.84,13.84,0,0,0-1.81,6.81c0,.83,1.25.83,1.3,0,.22-4.36,2-8.64,6.76-9.25a13,13,0,0,1,4.26.3c5.26,1,10.57,1.83,15.84,2.79,8.6,1.56,17.19,3.17,25.72,5,3.06.67,6.15,1.34,9.14,2.28,4.31,1.36,6.92,4.59,8.07,8.89a21,21,0,0,1,.69,6c-.14,4.4-.34,8.8-.5,13.2s.63,12.58-4.39,14.94a9.52,9.52,0,0,1-5.59.35c-7.3-1.25-14.53-3-21.74-4.6-8.49-1.92-17-3.84-25.37-6.2-4.08-1.14-8.17-2.57-10.53-6.35a11.74,11.74,0,0,1-1.76-6c-.21-6.44-.37-12.89-.55-19.34,0-.7,0-1.39-.05-2.09a.65.65,0,0,0-1.3,0"/><path class="cls-2" d="M163.21,100.91l.49,24.42s-.38,10,10.85,13.33,59.09,13.72,63.4,12.45,7.25-4,7.57-12.64.87-22.93.87-22.93.49-12.9-12.21-14.82-60.67-9.47-60.67-9.47-10,1-10.3,9.66"/><path d="M162.56,100.91q.21,10.85.44,21.69a30.19,30.19,0,0,0,.28,5,14.47,14.47,0,0,0,7.2,10c3.4,1.9,7.55,2.63,11.31,3.55,4.87,1.2,9.76,2.31,14.66,3.39,10.37,2.29,20.78,4.5,31.27,6.19a52.55,52.55,0,0,0,9.1,1.06c3.35-.05,6.42-2.51,7.79-5.47,1.29-2.78,1.48-5.91,1.6-8.93.13-3.34.25-6.68.38-10,.15-4,.44-8,.45-12a17.58,17.58,0,0,0-1.87-7.89c-2.26-4.44-6.46-6.79-11.27-7.54l-27.62-4.29q-14-2.19-28.09-4.41a30.32,30.32,0,0,0-4.71-.73c-2.9,0-6.41,1.9-8.34,3.94a10,10,0,0,0-2.58,6.37c-.05.83,1.24.83,1.29,0,.31-4.93,4.17-7.86,8.71-8.84a2.58,2.58,0,0,1,1.1-.15c.78.06,1.57.25,2.34.37l24.07,3.78q14.27,2.24,28.53,4.45c4,.61,8.32.81,11.68,3.23a14.14,14.14,0,0,1,5.38,10.07,42,42,0,0,1-.08,6c-.23,6-.44,12.08-.69,18.11-.2,5-1.35,11.51-7.28,12.55-2.25.39-5-.28-7.17-.6-9.41-1.38-18.75-3.35-28.05-5.34-8.59-1.84-17.2-3.7-25.68-6-4.7-1.27-9-3.36-11.16-8a14,14,0,0,1-1.21-5.69c-.13-7.3-.3-14.61-.44-21.91,0-.69,0-1.39-.05-2.08a.65.65,0,0,0-1.29,0"/><path class="cls-3" d="M5,45.32A.65.65,0,0,0,5,44a.65.65,0,0,0,0,1.3"/><path class="cls-3" d="M.48,46.57l27.2,4.88L93,63.18l79,14.19,68.31,12.27,22.51,4c3.52.64,7.11,1.54,10.67,1.92l.46.08c.82.15,1.16-1.1.34-1.25l-27.19-4.88L181.79,77.82l-79-14.19L34.46,51.36l-22.5-4c-3.53-.64-7.11-1.54-10.68-1.92l-.46-.08C0,45.17-.34,46.42.48,46.57"/><path class="cls-3" d="M272.28,161q.74-19.27,1.46-38.54l.81-21.26c0-.82,0-1.67.09-2.49,0-.4-.15-.92.16-.58.56.6.37,2.19.38,2.92,0,1.75,0,3.5-.07,5.26-.27,7.74-.86,15.48-1.51,23.2-.07.83,1.23.83,1.3,0,.61-7.2,1.14-14.43,1.44-21.65.09-2,.16-4,.15-6a12.31,12.31,0,0,0-.25-3.64c-.66-2-2.72-2-2.88.07-.44,5.79-.44,11.65-.66,17.45q-.52,14-1.06,27.94-.31,8.64-.65,17.29c0,.83,1.26.83,1.29,0"/></g></g></svg>