<svg xmlns="http://www.w3.org/2000/svg" viewBox="0 0 192.52 74.88"><defs><style>.cls-1{fill:#ff1d25;}.cls-2{fill:#fbf638;}</style></defs><g id="Capa_2" data-name="Capa 2"><g id="Capa_1-2" data-name="Capa 1"><path class="cls-1" d="M191.46,14.87c3.75,15.84-35.82,38.78-88.4,51.23S4.83,75.81,1.08,60,36.9,21.19,89.47,8.74s98.24-9.71,102,6.13"/><path d="M190.66,15.09c1.86,8.32-7.78,15.85-13.53,20C164.9,44,150.62,50.21,136.47,55.34A311.21,311.21,0,0,1,80,69.85c-16.62,2.67-33.78,4.25-50.6,2.63A65.89,65.89,0,0,1,12.2,68.87c-3.63-1.39-7.61-3.47-9.53-7-4-7.43,4.29-15.32,9.42-19.55C23.15,33.16,36.77,27,50,21.78A303.53,303.53,0,0,1,105.3,6.25C122.58,3.05,140.35,1,157.93,2A84.63,84.63,0,0,1,176.79,4.8c4.11,1.19,8.55,2.87,11.54,6.08a9.58,9.58,0,0,1,2.33,4.21.83.83,0,0,0,1.6-.44c-2.26-9-14.46-11.74-22.2-13-16.43-2.77-33.58-1.56-50,.62a311.54,311.54,0,0,0-59.81,14C45.06,21.48,29.76,27.8,16.47,36.94A55.41,55.41,0,0,0,4.23,47.76C2,50.63,0,54.11,0,57.88c0,9,10.82,12.78,18,14.46,15.33,3.6,31.79,2.77,47.31,1.14a308.68,308.68,0,0,0,59.83-12.57c16.18-5.07,32.35-11.35,46.81-20.31A72.42,72.42,0,0,0,186,29.72c2.77-2.88,5.45-6.37,6.28-10.37a11.12,11.12,0,0,0,0-4.7c-.23-1-1.83-.6-1.6.44"/><path class="cls-2" d="M50,58.84l-2,.46,1.28,5.41L38,67.37,31.08,38l14.68-3.48C59.47,31.3,66,45.18,59.74,53.37l6.43,7.34-12,2.83Zm-4-8.18,2.43-.57c4.19-1,2.74-7.69-1.58-6.67L44.37,44Z"/><path d="M49.74,58l-2,.46a.85.85,0,0,0-.58,1c.43,1.81.85,3.61,1.28,5.41.2-.34.39-.68.58-1L37.82,66.57l1,.58L32.75,41.47l-.87-3.67c-.19.34-.38.68-.58,1L45,35.59a15.77,15.77,0,0,1,8.72-.08,11.13,11.13,0,0,1,6.94,6.85A11.43,11.43,0,0,1,59,53a.85.85,0,0,0,.13,1l6.43,7.33c.13-.46.25-.92.37-1.38L54,62.74l.81.21-4.26-4.7c-.72-.8-1.89.38-1.17,1.18l4.26,4.7a.81.81,0,0,0,.8.21l12-2.83a.84.84,0,0,0,.37-1.39l-6.43-7.33c0,.33.09.67.13,1a13.12,13.12,0,0,0-3-18.25c-5.66-4-12.3-1.71-18.37-.27l-8.19,1.94a.85.85,0,0,0-.58,1l6.09,25.69c.29,1.22.58,2.44.86,3.67a.86.86,0,0,0,1,.58l11.23-2.67a.86.86,0,0,0,.59-1l-1.29-5.41-.58,1,2-.47c1-.24.59-1.84-.45-1.59"/><path d="M46.17,51.47c.88-.21,1.78-.38,2.65-.64A4,4,0,0,0,51.58,48c.65-2.63-1.21-5.66-4.1-5.5a9.37,9.37,0,0,0-1.74.33l-1.59.38a.84.84,0,0,0-.58,1L45,50.05c.06.28.13.56.19.83.25,1,1.86.61,1.61-.44l-1.38-5.82c-.07-.28-.14-.56-.2-.84-.2.34-.39.68-.58,1L47,44.22l.12,0,.15,0h.61c.08,0,.2,0,.05,0a2.59,2.59,0,0,1,.4.09l.18.06,0,0,.34.19.15.11c-.11-.08,0,0,0,0a2.47,2.47,0,0,1,.28.28s.14.17.07.08,0,.06.06.09a2.39,2.39,0,0,1,.21.34l.08.16c0,.08.07.16,0,0,0,.13.09.25.13.38l.09.39c0,.09,0,.17,0,0a1.8,1.8,0,0,1,0,.22c0,.13,0,.25,0,.37s0,.12,0,.19,0,.22,0,0a5.08,5.08,0,0,1-.2.74s.07-.12,0,0l-.09.16a1.9,1.9,0,0,1-.22.33c.09-.11,0,0,0,0l-.13.14-.14.12-.08.07c-.09.07.12-.08,0,0l-.35.21-.19.09,0,0-.14,0c-.9.31-1.87.46-2.79.69s-.6,1.84.44,1.6"/><path class="cls-2" d="M95.35,38.3c2,8.55-1.41,16.68-12.4,19.28S65.21,54.47,63.18,45.92s1.41-16.68,12.44-19.29,17.7,3.11,19.73,11.67M83.61,41.08c-.93-3.9-3.13-5.9-5.81-5.27s-3.8,3.42-2.87,7.33,3.12,5.9,5.84,5.25,3.76-3.41,2.84-7.31"/><path d="M94.55,38.52C96,44.9,94.12,51.3,88.24,54.68c-5.71,3.27-14.11,4.15-19.39-.41-4.39-3.81-6.34-10.75-5-16.35,1.69-7,8.85-10.63,15.62-11a14,14,0,0,1,10.08,3,16.2,16.2,0,0,1,5,8.67c.25,1,1.85.6,1.6-.44-1.71-6.92-6.69-12.27-14-12.86s-16,2.8-19.05,9.85c-2.64,6.07-1.07,14,3.22,19,5.14,5.93,13.8,6,20.6,3.12a15.65,15.65,0,0,0,8.51-7.88,17.72,17.72,0,0,0,.75-11.21c-.24-1-1.84-.6-1.6.44"/><path d="M84.41,40.86c-.61-2.48-2-5.44-4.83-5.92A4.9,4.9,0,0,0,74,38.52c-1.27,4.53,2.16,13.24,8.08,10.26,2.9-1.46,2.92-5.19,2.3-7.92-.24-1-1.85-.6-1.61.44.42,1.82.67,4.46-1,5.75a3.25,3.25,0,0,1-4.47-.64c-2-2.38-3.46-9.89,1.46-9.88,2.44,0,3.56,2.8,4,4.77a.84.84,0,0,0,1.61-.44"/><path class="cls-2" d="M120.58,16.82l3.49,14.76c2.69,11.32-2.47,16.84-10.27,18.69-6.63,1.57-15.16,1.25-18-10.54l10.94-2.59c.55,2.3,1.88,3.63,4.1,3.1,2.06-.49,2.8-2.21,1.91-6l-1.46-6.13-13,3.09-2-8.64Z"/><path d="M119.78,17c1.28,5.44,2.85,10.87,3.83,16.37.89,5,.13,10.41-4.23,13.55a19.07,19.07,0,0,1-11.92,3.12c-6.08-.41-9.43-5-10.81-10.57l-.58,1L107,37.94l-1-.58c.58,2.18,2,4,4.47,3.79a3.71,3.71,0,0,0,3.47-3.3,14.62,14.62,0,0,0-.7-5.36l-1.08-4.58a.85.85,0,0,0-1-.58l-13,3.09,1,.58-2-8.64-.58,1,24.32-5.76c1-.24.6-1.85-.44-1.6L96,21.78a.85.85,0,0,0-.57,1l2,8.64a.85.85,0,0,0,1,.58c4.35-1,8.7-2.05,13-3.09l-1-.58c.47,2,.95,4,1.41,5.94.3,1.3.88,3.44-.16,4.57a2.6,2.6,0,0,1-2.27.62c-1.2-.26-1.65-1.51-1.93-2.56a.83.83,0,0,0-1-.58L95.62,38.93a.83.83,0,0,0-.57,1c1.25,5.06,4,9.77,9.34,11.28,4.17,1.19,9.11.41,13-1.29a13.05,13.05,0,0,0,8-10.31c.58-4.12-.54-8.12-1.48-12.1q-1.31-5.46-2.59-10.93c-.25-1-1.85-.6-1.6.44"/><path class="cls-2" d="M159.21,23.17c2,8.55-1.41,16.68-12.39,19.28s-17.74-3.11-19.77-11.66,1.41-16.68,12.44-19.29,17.7,3.11,19.72,11.67M147.47,26c-.92-3.9-3.12-5.9-5.81-5.27s-3.79,3.42-2.87,7.33,3.13,5.9,5.86,5.25,3.75-3.41,2.82-7.31"/><path d="M158.41,23.39c1.45,6.38-.42,12.78-6.31,16.16-5.7,3.27-14.11,4.15-19.38-.41-4.4-3.81-6.34-10.75-5-16.35,1.69-7,8.85-10.63,15.62-11a14,14,0,0,1,10.08,3,16.12,16.12,0,0,1,5,8.67A.84.84,0,0,0,160,23c-1.71-6.92-6.7-12.27-14-12.86s-16,2.8-19.05,9.85c-2.64,6.07-1.07,14,3.22,19,5.14,5.93,13.8,6,20.6,3.12a15.65,15.65,0,0,0,8.51-7.88A17.79,17.79,0,0,0,160,23c-.24-1-1.84-.6-1.61.44"/><path d="M148.28,25.73c-.61-2.48-2-5.44-4.84-5.92a4.89,4.89,0,0,0-5.54,3.58c-1.27,4.53,2.16,13.24,8.08,10.26,2.9-1.46,2.92-5.19,2.3-7.92-.24-1-1.85-.6-1.61.44.42,1.82.67,4.46-1,5.75a3.25,3.25,0,0,1-4.47-.64c-2-2.38-3.47-9.89,1.46-9.88,2.44,0,3.56,2.8,4,4.77a.84.84,0,0,0,1.61-.44"/></g></g></svg>