<svg id="Capa_1" data-name="Capa 1" xmlns="http://www.w3.org/2000/svg" viewBox="0 0 192.52 74.88"><defs><style>.cls-1{fill:#ed74aa;}.cls-2{fill:#ffd900;}</style></defs><ellipse class="cls-1" cx="96.26" cy="37.44" rx="93.18" ry="28.07" transform="translate(-5.82 21.74) rotate(-12.51)"/><path d="M186.74,17.39c.7,3.24-.69,6.45-2.5,9.08-2.72,3.93-6.55,7.09-10.4,9.85A115.41,115.41,0,0,1,157,46.09a207.24,207.24,0,0,1-22.27,9.12A295.19,295.19,0,0,1,79.66,68.49C63.75,70.77,47.32,72,31.3,70.12A60.37,60.37,0,0,1,15.11,66.3c-3.33-1.4-6.86-3.44-8.59-6.76-3.71-7.13,4-14.53,9-18.56a92.86,92.86,0,0,1,15.45-9.87A187.08,187.08,0,0,1,52.18,21.7,289.76,289.76,0,0,1,106.05,7.45C122.6,4.67,139.63,3,156.4,4.3a77.79,77.79,0,0,1,17.73,3.09c3.83,1.22,7.9,3,10.59,6.06a9.1,9.1,0,0,1,2,3.94c.15.63,1.11.36,1-.27-.81-3.51-3.59-6.07-6.59-7.82-4.39-2.55-9.49-3.85-14.45-4.74a120.73,120.73,0,0,0-21-1.66,217.49,217.49,0,0,0-26,1.6A297,297,0,0,0,62.93,16.89c-14.55,4.72-29.2,10.5-42,18.94A53.66,53.66,0,0,0,8.88,46c-2.23,2.69-4.23,6-4.29,9.58C4.45,64.15,15,67.81,21.7,69.45a98.46,98.46,0,0,0,19.42,2.42,195.34,195.34,0,0,0,24.79-.77A292.75,292.75,0,0,0,123.08,60c15.4-4.57,30.8-10.28,44.65-18.52a70.06,70.06,0,0,0,13.58-10.06c2.75-2.72,5.43-6,6.33-9.86a10.23,10.23,0,0,0,.07-4.44C187.57,16.49,186.61,16.76,186.74,17.39Z"/><path class="cls-2" d="M34.58,59.14,33,59.49l1,4.3-8.93,2L19.85,42.42l11.67-2.59c10.91-2.42,15.88,8.66,10.87,15.09l5,5.89L37.9,62.92Zm-3.09-6.52,1.93-.43c3.34-.74,2.26-6.07-1.18-5.31l-1.93.43Z"/><path d="M34.45,58.66,32.88,59a.51.51,0,0,0-.35.62l.95,4.3.35-.61-8.94,2,.62.35-1.75-7.89L21,45.17l-.64-2.88-.35.62,11.14-2.48a11.86,11.86,0,0,1,7.24.31,9,9,0,0,1,5.06,5.62A9.17,9.17,0,0,1,42,54.67a.5.5,0,0,0,.08.6l5,5.89.22-.84-9.5,2.11.48.13-3.32-3.78c-.42-.48-1.13.23-.71.71l3.33,3.78a.5.5,0,0,0,.48.13l9.51-2.11a.51.51,0,0,0,.22-.84l-5-5.88.08.6A10.22,10.22,0,0,0,40.3,40.64a11.66,11.66,0,0,0-8.93-1.28c-1.82.39-3.64.8-5.46,1.21l-6.2,1.37a.52.52,0,0,0-.35.62l1.75,7.89L23.9,63l.64,2.88a.51.51,0,0,0,.62.35l8.94-2a.51.51,0,0,0,.35-.61l-1-4.31-.35.62,1.57-.35C35.34,59.48,35.07,58.52,34.45,58.66Z"/><path d="M31.62,53.1c.7-.16,1.42-.28,2.11-.48a3,3,0,0,0,2.1-2.11,3.27,3.27,0,0,0-3-4.2,7.58,7.58,0,0,0-1.33.24l-1.27.28a.5.5,0,0,0-.35.62l1,4.64.14.66c.14.63,1.11.36,1-.27l-1-4.64-.15-.66-.35.61,1.93-.42a2,2,0,0,1,1.15,0,1.65,1.65,0,0,1,.48.24.83.83,0,0,1,.16.13,2.28,2.28,0,0,1,.22.22,1.12,1.12,0,0,1,.12.17c.06.09.11.18.16.27s.05.09.07.13l0,.06a2.81,2.81,0,0,1,.1.31,1.85,1.85,0,0,1,.09.54v.3a.61.61,0,0,0,0,.14.2.2,0,0,0,0,.07c0-.05,0,0,0,0a3.2,3.2,0,0,1-.15.54s0,.07,0,.09,0,.09-.07.13l-.08.12s-.1.14,0,.08a1.89,1.89,0,0,1-.94.65,21.17,21.17,0,0,1-2.23.51C30.72,52.27,31,53.24,31.62,53.1Z"/><path class="cls-2" d="M71.36,43.24c1.51,6.81-1.3,13.2-10,15.14s-14-2.66-15.54-9.46,1.31-13.2,10.08-15.15S69.85,36.44,71.36,43.24ZM62,45.31c-.68-3.1-2.41-4.71-4.54-4.24s-3,2.67-2.36,5.78,2.41,4.71,4.58,4.23S62.71,48.42,62,45.31Z"/><path d="M70.88,43.37a13.19,13.19,0,0,1-.31,7.29,10.5,10.5,0,0,1-4.76,5.51c-4.58,2.64-11.39,3.32-15.63-.36A13.85,13.85,0,0,1,46.3,42.35c1.51-5.51,7.21-8.22,12.56-8.5a11.26,11.26,0,0,1,8.06,2.46,12.9,12.9,0,0,1,4,7.06c.14.63,1.11.37,1-.26a14.17,14.17,0,0,0-3.66-7,11.61,11.61,0,0,0-7.12-3.23,17.92,17.92,0,0,0-9.54,1.86A11.84,11.84,0,0,0,46,40.39a14.87,14.87,0,0,0,2.3,14.88c4,4.74,10.82,4.87,16.18,2.68a11.8,11.8,0,0,0,7.74-12.8,19.68,19.68,0,0,0-.32-2C71.71,42.48,70.74,42.75,70.88,43.37Z"/><path d="M62.51,45.18c-.45-1.92-1.5-4.23-3.66-4.63a3.73,3.73,0,0,0-4.24,2.68c-1,3.44,1.48,10.26,6.07,8,2.25-1.09,2.28-4,1.83-6.08-.14-.63-1.1-.36-1,.27.32,1.5.47,3.62-.91,4.68a2.73,2.73,0,0,1-3.78-.56c-1.67-2-2.68-8.14,1.4-8.08,2,0,2.92,2.32,3.29,4C61.69,46.07,62.65,45.81,62.51,45.18Z"/><path class="cls-2" d="M94.7,42.93c1,4.5-2.4,8.58-8.87,10-5.6,1.25-11.3,0-12.77-6.61l8-1.75a2.33,2.33,0,0,0,2.85,2,2,2,0,0,0,1.67-2.43c-.58-2.61-11.77,1.38-13.42-6.06-1.11-5,2.86-8.57,8-9.71,4.54-1,10.49-.33,12,6.31l-7.73,1.75a2.17,2.17,0,0,0-2.62-1.87c-.87.19-1.53.86-1.36,1.63C81,38.66,93.13,35.82,94.7,42.93Z"/><path d="M94.22,43.06c.84,4-2.14,7-5.58,8.49s-8.13,2.13-11.51.09a8.28,8.28,0,0,1-3.59-5.44l-.35.61,8-1.75-.62-.35A3.05,3.05,0,0,0,82.42,47,3,3,0,0,0,85,46.66c1.14-.75,1.74-2.79.34-3.58a7,7,0,0,0-3.11-.52,31.45,31.45,0,0,1-4.34-.31A7,7,0,0,1,74,40.5a6,6,0,0,1-1.41-5.07c.71-4.34,5.54-6.47,9.46-6.86a10.33,10.33,0,0,1,5.78.88,7.71,7.71,0,0,1,3.82,5.36L92,34.2,84.27,36l.62.35a2.83,2.83,0,0,0-2.09-2.24,2.54,2.54,0,0,0-2.69,1.11c-.72,1.3.42,2.13,1.53,2.42a31.09,31.09,0,0,0,4.21.56,18.36,18.36,0,0,1,4.86,1.06,5.48,5.48,0,0,1,3.51,3.85c.15.63,1.11.36,1-.27-.72-3.12-3.54-4.59-6.46-5.2A43.49,43.49,0,0,0,84.3,37a9,9,0,0,1-3-.57,1,1,0,0,1-.3-.21.79.79,0,0,1,.38-.94c1.16-.75,2.28.16,2.56,1.3a.52.52,0,0,0,.62.35l7.73-1.75a.51.51,0,0,0,.35-.62,9,9,0,0,0-3-5.15,9.19,9.19,0,0,0-4.89-1.83c-3.84-.38-8.32.85-11,3.69-2.54,2.67-3.08,7.44-.21,10.11,2.21,2,5.52,2.09,8.34,2.19.9,0,2.56-.08,3.2.48.14.12.18.23.18.56A1.54,1.54,0,0,1,84.07,46a1.9,1.9,0,0,1-2.48-1.57A.51.51,0,0,0,81,44.1l-8,1.75a.5.5,0,0,0-.35.61A9.44,9.44,0,0,0,75.92,52a9.91,9.91,0,0,0,5.64,1.84c4.33.18,9.55-1.35,12.26-4.92a7.44,7.44,0,0,0,1.36-6.15C95.05,42.16,94.09,42.43,94.22,43.06Z"/><path class="cls-2" d="M112.71,43.52,106.18,45,106,47.81,96.13,50l3.66-25.3,10.14-2.25,14,21.38L114.11,46Zm-3.33-6.05L107,33.17l-.35,4.9Z"/><path d="M112.58,43,106,44.48a.51.51,0,0,0-.36.49l-.21,2.84.37-.48L96,49.51l.61.62,1.24-8.58,2-13.6.45-3.13-.35.35,10.14-2.25-.57-.23,4.76,7.25,7.53,11.49,1.73,2.64.3-.73L114,45.52l.57.23-1.39-2.49a.5.5,0,0,0-.87.51l1.39,2.49a.52.52,0,0,0,.57.23l9.84-2.19a.5.5,0,0,0,.3-.73l-4.75-7.25-7.54-11.49-1.73-2.65a.53.53,0,0,0-.57-.23L99.65,24.2a.51.51,0,0,0-.35.35l-1.24,8.58-2,13.6-.45,3.13a.51.51,0,0,0,.61.62l9.84-2.19a.51.51,0,0,0,.37-.48l.21-2.84-.37.48L112.85,44C113.47,43.86,113.21,42.89,112.58,43Z"/><path d="M109.81,37.21l-2.09-3.75-.3-.55a.51.51,0,0,0-.93.26l-.3,4.29,0,.61a.51.51,0,0,0,.63.49l2.74-.61c.63-.14.36-1.11-.27-1l-2.73.61.63.48.3-4.29,0-.61-.93.25,2.08,3.76.31.54C109.26,38.28,110.12,37.78,109.81,37.21Z"/><path class="cls-2" d="M137.12,40.9,125,43.59l-5.18-23.35,12.11-2.69C147.88,14.16,153,37.38,137.12,40.9Zm-5-16.19-1.87.42,2.13,9.6,1.87-.41C139.66,33.13,137.66,23.49,132.16,24.71Z"/><path d="M137,40.42,126.4,42.77l-1.52.33.61.35-1.75-7.89L121,23l-.64-2.88-.35.61,8.26-1.83c2.84-.63,5.72-1.5,8.65-1,6.86,1.08,10.87,8.55,8.89,15-1.25,4.06-4.73,6.63-8.78,7.55-.62.14-.36,1.1.27,1a12.53,12.53,0,0,0,8.94-6.84,13,13,0,0,0,.13-10.06,12.18,12.18,0,0,0-7.27-7.12,13.11,13.11,0,0,0-6-.51c-1.14.16-2.27.45-3.4.7l-10,2.21a.5.5,0,0,0-.35.61l1.75,7.89,2.79,12.58.64,2.88a.51.51,0,0,0,.61.35l10.59-2.35,1.52-.34C137.88,41.24,137.61,40.28,137,40.42Z"/><path d="M132,24.23l-1.87.41a.52.52,0,0,0-.35.62l1.86,8.39.27,1.21a.5.5,0,0,0,.62.35,11.93,11.93,0,0,0,2.95-.8,4.4,4.4,0,0,0,2.16-2.62,6.48,6.48,0,0,0-1.73-6.6,4.44,4.44,0,0,0-3.91-1c-.63.13-.37,1.1.26,1,4.32-.91,6.51,6.28,2.83,8.29a10.6,10.6,0,0,1-2.83.77l.62.35-1.86-8.39L130.77,25l-.34.62,1.86-.42C132.92,25.05,132.66,24.09,132,24.23Z"/><path class="cls-2" d="M173,20.69c1.51,6.81-1.3,13.21-10,15.15s-14-2.67-15.54-9.47,1.3-13.2,10.08-15.15S171.47,13.89,173,20.69Zm-9.34,2.08c-.69-3.11-2.41-4.72-4.54-4.25s-3,2.68-2.36,5.78,2.41,4.71,4.58,4.23S164.33,25.87,163.64,22.77Z"/><path d="M172.5,20.83a13.25,13.25,0,0,1-.31,7.28,10.54,10.54,0,0,1-4.76,5.51c-4.59,2.65-11.4,3.32-15.63-.36a13.83,13.83,0,0,1-3.88-13.46c1.51-5.51,7.21-8.21,12.56-8.5a11.26,11.26,0,0,1,8.06,2.46,13,13,0,0,1,4,7.07c.14.62,1.1.36,1-.27a14.12,14.12,0,0,0-3.65-7,11.57,11.57,0,0,0-7.12-3.24,17.9,17.9,0,0,0-9.54,1.86,11.84,11.84,0,0,0-5.58,5.64,14.84,14.84,0,0,0,2.3,14.88c4,4.74,10.81,4.87,16.18,2.68a12.55,12.55,0,0,0,6.29-5.24,12.64,12.64,0,0,0,1.45-7.56,17.34,17.34,0,0,0-.33-2C173.33,19.93,172.36,20.2,172.5,20.83Z"/><path d="M164.12,22.63c-.44-1.92-1.49-4.22-3.65-4.62a3.71,3.71,0,0,0-4.24,2.67c-1,3.44,1.48,10.26,6.07,8,2.25-1.09,2.27-4,1.82-6.08-.13-.63-1.1-.36-1,.27.32,1.5.47,3.62-.92,4.68a2.72,2.72,0,0,1-3.77-.56c-1.68-2-2.68-8.14,1.39-8.08,2,0,2.92,2.32,3.3,4C163.3,23.53,164.27,23.26,164.12,22.63Z"/></svg>