<svg xmlns="http://www.w3.org/2000/svg" viewBox="0 0 211.99 102.84"><defs><style>.cls-1{fill:#ff1d25;}</style></defs><g id="Capa_2" data-name="Capa 2"><g id="Capa_1-2" data-name="Capa 1"><path class="cls-1" d="M207.48,17.42c-18.23-15.22-49.55-10.18-62.09,10-4.77,7.67-7.06,16.91-13.1,23.63-9.14,10.17-24.46,12-38,10.41-6.56-.75-13.44-2.09-19.61.28C68.09,64.26,63.78,70.38,59.57,76c-7,9.33-15.21,18.33-25.92,23S9.18,102.94,1,94.63A42.68,42.68,0,0,0,45.37,84.51c9-9.36,14.18-23.27,26.17-28.31,13.32-5.62,29.17,2.45,42.89-2.12,21-7,24-37.67,43.14-48.91,16.9-9.93,38.8-.35,53.39,12.74"/><path d="M208.19,16.72c-10.8-8.89-25.7-11.13-39-7.48a44,44,0,0,0-17.77,9.52c-6,5.41-9.29,12.48-12.65,19.71-2,4.29-4.14,8.6-7.36,12.1a29.11,29.11,0,0,1-10.2,7c-7.85,3.32-16.71,3.8-25.1,3-9-.82-18.39-3.08-26.35,2.64-7,5-11.26,13-16.82,19.37C46.24,90.29,38,97.31,28,99.83c-9.1,2.28-19.45.87-26.33-5.91l-1,1.67A43.72,43.72,0,0,0,47.27,83.93c5.64-6.3,9.58-13.93,15.39-20.08A27,27,0,0,1,73,56.68c4.5-1.61,9.33-1.72,14.06-1.43,9.28.57,19,2.84,28.07-.36,6.15-2.17,11-6.53,15-11.63,8.63-11.19,13.19-25.91,24.53-34.89,17.41-13.79,41.22-2.54,55.6,10.24,1,.85,2.37-.56,1.41-1.41-12.53-11.14-31-21-48.18-15.72-14.64,4.53-21.57,19-28.78,31.22-3.58,6.06-7.53,12.28-13.24,16.57-7.34,5.49-16.12,5.68-24.9,4.85-9-.84-18.44-2.35-26.85,1.82C62.39,59.57,57.6,66.55,53,73.06a80.78,80.78,0,0,1-9,11.4,39.86,39.86,0,0,1-12.72,8.36,41.77,41.77,0,0,1-30,.84c-1-.35-1.64,1-1,1.67,5.53,5.45,13.22,7.79,20.88,7.49,8.39-.33,16.13-3.75,22.75-8.81,7-5.32,12.46-12.11,17.68-19.06,2.7-3.59,5.49-7.29,9.16-9.94,4.12-3,8.91-3.8,13.92-3.57,4.75.22,9.44,1.15,14.2,1.41a64.4,64.4,0,0,0,12.1-.46c7.81-1.09,15.59-4,21.2-9.74,6.3-6.43,8.74-15.3,13.06-23a38.05,38.05,0,0,1,15.48-15C175,7.1,194,7.63,206.78,18.13c1,.81,2.4-.6,1.41-1.41"/></g></g></svg>