<svg xmlns="http://www.w3.org/2000/svg" viewBox="0 0 155.69 90.81"><defs><style>.cls-1{fill:#ff1d25;}</style></defs><g id="Capa_2" data-name="Capa 2"><g id="Capa_1-2" data-name="Capa 1"><path class="cls-1" d="M1,85.43c17.47,8.26,43.91,5,54.37-11.29,4.18-6.49,6.41-14.06,10.18-20.8C72.47,41,81.37,31.8,95.12,28.56c9.74-2.31,23.46-5.07,32.82-8.61A63.28,63.28,0,0,0,154.74,1C145.16,12.92,128,14.31,113,16.91a162.67,162.67,0,0,0-39.13,12c-6.17,2.78-12.44,6.17-16.22,11.79s-4.55,12.43-6.8,18.69C44.13,78,23,90.17,3.49,86.58"/><path d="M.52,86.29A51.44,51.44,0,0,0,32.7,89.63c11.12-2.4,20.39-8.58,25.72-18.74,3.41-6.5,5.76-13.46,9.6-19.75A53.75,53.75,0,0,1,80,37C85.15,32.83,91,30.52,97.4,29c6.74-1.55,13.51-3,20.19-4.81a85.72,85.72,0,0,0,20.7-8A67.92,67.92,0,0,0,155.44,1.74L154,.33c-7.49,9.09-19.31,11.89-30.39,13.81-6.18,1.07-12.39,1.94-18.51,3.3a163.24,163.24,0,0,0-20.78,6.1c-11.27,4.13-24.73,9-29.82,20.85-2.47,5.73-3.23,12-5.89,17.7a40.63,40.63,0,0,1-9.87,13.09c-9.42,8.37-22.52,12.64-35,10.44C2.5,85.4,2,87.32,3.22,87.54a43.86,43.86,0,0,0,31-6.43A44.38,44.38,0,0,0,53.24,55c1.89-6.67,3.59-13.22,9-18,5.07-4.52,11.74-7.23,18-9.74,13.24-5.33,26.89-8.39,40.93-10.69,12.36-2,25.94-4.65,34.33-14.84.81-1-.56-2.39-1.41-1.41a67.07,67.07,0,0,1-15.11,13.16,73.64,73.64,0,0,1-18,7.73c-6.6,2-13.34,3.46-20,5C95,27.54,89.29,28.83,84,31.83,73.35,37.92,66.25,48.68,61.37,59.67c-2.69,6.07-5.08,12.64-9.65,17.59A34,34,0,0,1,38.12,86a49.15,49.15,0,0,1-36.6-1.43C.37,84-.65,85.75.52,86.29"/></g></g></svg>