<svg xmlns="http://www.w3.org/2000/svg" viewBox="0 0 155.69 90.81"><defs><style>.cls-1{fill:#ff1d25;}</style></defs><g id="Capa_2" data-name="Capa 2"><g id="Capa_1-2" data-name="Capa 1"><path class="cls-1" d="M154.67,5.38c-17.48-8.26-43.91-5-54.37,11.29-4.19,6.5-6.41,14-10.19,20.8C83.21,49.79,74.31,59,60.56,62.26c-9.74,2.3-23.45,5.06-32.82,8.6A63.25,63.25,0,0,0,1,89.78C10.52,77.89,27.66,76.5,42.69,73.91a163.3,163.3,0,0,0,39.13-12c6.18-2.79,12.44-6.18,16.23-11.8s4.54-12.43,6.8-18.69c6.7-18.63,27.88-30.8,47.35-27.21"/><path d="M155.17,4.52A51.53,51.53,0,0,0,123,1.18c-11.11,2.39-20.39,8.58-25.71,18.74-3.41,6.5-5.76,13.46-9.6,19.75a54.14,54.14,0,0,1-12,14.19c-5.14,4.12-11,6.43-17.39,7.91-6.74,1.55-13.51,3-20.19,4.81a85.65,85.65,0,0,0-20.69,8A67.75,67.75,0,0,0,.25,89.07l1.41,1.41C9.14,81.39,21,78.59,32.05,76.67c6.18-1.07,12.38-1.94,18.5-3.3a165,165,0,0,0,20.79-6.09c11.26-4.14,24.73-9,29.82-20.86,2.46-5.73,3.23-12,5.88-17.7a40.77,40.77,0,0,1,9.87-13.09c9.42-8.37,22.52-12.64,35-10.44,1.26.23,1.8-1.7.53-1.92a43.87,43.87,0,0,0-31,6.43,44.39,44.39,0,0,0-19,26.09c-1.88,6.68-3.58,13.22-9,18-5.07,4.52-11.74,7.23-18,9.74-13.24,5.33-26.89,8.39-40.92,10.69C22.21,76.25,8.64,78.88.25,89.07c-.81,1,.55,2.39,1.41,1.41A67.07,67.07,0,0,1,16.77,77.32a73.57,73.57,0,0,1,18-7.73c6.61-2,13.34-3.46,20.06-5C60.67,63.27,66.4,62,71.66,59c10.68-6.09,17.78-16.85,22.65-27.84C97,25.07,99.4,18.51,104,13.55a34,34,0,0,1,13.6-8.75,49.22,49.22,0,0,1,36.59,1.44c1.16.54,2.18-1.18,1-1.72"/></g></g></svg>