<svg xmlns="http://www.w3.org/2000/svg" viewBox="0 0 261.73 123.18"><defs><style>.cls-1{fill:#ff1d25;}</style></defs><g id="Capa_2" data-name="Capa 2"><g id="Capa_1-2" data-name="Capa 1"><path class="cls-1" d="M234.13,9.77c-20.43-10.85-47.38-9-62.62,8.35-6.45,7.37-10.95,16.7-19.06,22.21-9.52,6.49-22.16,6.32-33.38,3.68s-21.87-7.46-33.2-9.58A73.08,73.08,0,0,0,20.46,55.67,73.14,73.14,0,0,0,3,122.18,72.54,72.54,0,0,1,84.28,50c11.81,1.43,23.08,5.75,34.77,7.95S143.69,60,153.5,53.22c13.9-9.51,18.15-29.66,33-37.61,11.76-6.3,26.05-2.83,39.32-1.37S255.35,13.17,260.72,1a30.52,30.52,0,0,1-21.61,7.71c-1.5-.07-3.39-.05-4,1.32s3.08-1,2.68-2.43"/><path d="M234.57,8.88C218.79.6,198.9-.7,182.92,7.82a43.65,43.65,0,0,0-10.58,7.94c-3.68,3.76-6.59,8.19-9.69,12.42s-6.68,8.7-11.29,11.68a32,32,0,0,1-14.72,4.71c-11.6,1-22.71-2.83-33.56-6.4S81.49,31.83,70,32.33c-19.81.85-39.31,9.84-52.31,24.9A74.38,74.38,0,0,0,2,122.51c.28,1.17,1.94.65,1.94-.4,0-23,11.56-45.59,30.54-58.75a73.23,73.23,0,0,1,29.89-12c12.11-1.94,23.8-.23,35.57,2.85,11.53,3,23.13,6.62,35.2,5.87,9.85-.62,18.75-4.42,25.4-11.8,6.43-7.12,10.51-16,16.6-23.36a32.15,32.15,0,0,1,11.4-9.21A36,36,0,0,1,203.73,13c11.55.1,22.85,3.55,34.43,2.36,9.44-1,19.28-4.79,23.46-13.93A1,1,0,0,0,260,.29a29.73,29.73,0,0,1-11.14,6.17,29.2,29.2,0,0,1-6.62,1.18c-1.77.11-3.64-.21-5.39.12a3.27,3.27,0,0,0-2.72,2,1.17,1.17,0,0,0,1,1.58c1.74.24,3.85-2.29,3.68-3.89-.13-1.28-2.13-1.14-2,.15.05.51-.45.9-.79,1.2s-.92.33-.49.6c.18.27.36.55.55.82-.12-.8,6.34-.61,7-.66a32,32,0,0,0,6.79-1.33,32.21,32.21,0,0,0,11.68-6.65L259.83.5C255.77,9.38,246,12.7,236.89,13.43c-10.32.83-20.45-1.9-30.72-2.39-10.09-.48-19.69,1.69-27.13,8.86C172.14,26.54,168,35.4,162.29,43a39.37,39.37,0,0,1-10.41,10.1A35.3,35.3,0,0,1,136.27,58c-12.45,1.1-24.45-2.74-36.34-5.84-11.47-3-22.93-4.66-34.75-2.92A75.49,75.49,0,0,0,35.8,60.1,73.72,73.72,0,0,0,2,122.26l1.93-.41a72.43,72.43,0,0,1,12.2-59.42c12-16.1,31-26.17,50.92-27.91,11-1,21.44,1.06,31.87,4.37,10.62,3.38,21.16,7.43,32.44,7.8,9.61.31,18.94-2.29,26-9,7.28-7,11.53-16.56,19.28-23.12C192.41,1.14,216,1.36,233.68,10.67c1.14.6,2-1.19.89-1.79"/></g></g></svg>